<?xml version="1.0" standalone="no"?>
<!DOCTYPE svg PUBLIC "-//W3C//DTD SVG 20010904//EN"
 "http://www.w3.org/TR/2001/REC-SVG-20010904/DTD/svg10.dtd">
<svg version="1.0" xmlns="http://www.w3.org/2000/svg"
 width="959.000000pt" height="959.000000pt" viewBox="0 0 959.000000 959.000000"
 preserveAspectRatio="xMidYMid meet">
<metadata>
Created by potrace 1.11, written by Peter Selinger 2001-2013
</metadata>
<g transform="translate(0.000000,959.000000) scale(0.100000,-0.100000)"
fill="#000000" stroke="none">
<path d="M1502 9125 l-167 -165 46 -43 c25 -23 97 -89 160 -146 63 -57 174
-161 248 -230 149 -141 201 -186 210 -186 4 0 45 45 91 100 46 55 114 130 152
167 37 36 68 70 68 76 0 5 -100 103 -222 218 -123 115 -227 214 -233 220 -5 5
-44 39 -85 75 -41 35 -76 67 -78 72 -9 18 -34 -3 -190 -158z"/>
<path d="M3950 8523 c-280 -15 -525 -75 -720 -173 -184 -94 -302 -181 -460
-340 -120 -121 -262 -356 -305 -505 -10 -33 -28 -94 -41 -135 -30 -101 -51
-205 -63 -325 -6 -55 -18 -169 -27 -254 -15 -133 -16 -170 -5 -280 11 -112 21
-187 35 -258 3 -12 12 -38 21 -56 16 -34 16 -34 -24 -93 -76 -114 -172 -266
-178 -282 -3 -10 -14 -36 -24 -60 -11 -23 -26 -66 -33 -95 -8 -29 -23 -81 -35
-117 -27 -80 -105 -405 -126 -520 -35 -193 -72 -498 -115 -930 -5 -52 -16
-162 -25 -245 -17 -162 -27 -278 -50 -595 -9 -113 -26 -302 -40 -420 -13 -118
-32 -280 -40 -360 -25 -220 -100 -464 -232 -752 -15 -32 -24 -61 -20 -64 17
-18 203 181 292 312 22 33 56 82 76 109 20 28 47 68 60 91 58 98 133 204 140
197 4 -5 14 -62 23 -128 63 -452 190 -854 362 -1136 30 -50 54 -92 54 -95 0
-11 94 -134 102 -134 11 0 11 1 -11 51 -64 145 -211 963 -211 1175 0 43 15 17
33 -57 16 -64 51 -184 119 -409 50 -166 92 -271 189 -466 68 -136 107 -201
155 -259 35 -43 69 -85 73 -94 21 -36 21 3 2 96 -51 245 -107 743 -83 743 4 0
25 -33 47 -73 127 -230 202 -355 276 -455 62 -85 189 -293 236 -387 72 -142
126 -369 123 -515 -1 -47 -2 -118 -1 -157 l1 -73 2270 0 c2219 0 2270 0 2270
19 0 25 -44 176 -81 281 -17 47 -36 101 -41 120 -17 58 -97 259 -140 350 -69
146 -149 304 -170 333 -12 16 -23 50 -26 75 -6 53 -59 128 -155 220 -31 28
-59 57 -62 62 -3 5 10 45 30 87 67 143 205 555 258 773 37 150 85 400 98 505
14 116 18 135 27 135 18 0 74 -400 87 -624 4 -56 8 -123 10 -151 2 -27 4 -60
4 -72 1 -13 7 -23 15 -23 9 0 19 28 30 88 54 297 56 713 5 1097 -24 182 -62
416 -81 503 -10 52 -18 96 -15 98 2 2 28 -37 58 -87 83 -139 204 -294 312
-399 87 -85 203 -170 231 -170 6 0 -15 24 -46 53 -52 47 -69 74 -178 290 -66
131 -120 244 -120 253 0 12 7 13 38 7 74 -14 146 -7 203 20 64 31 74 38 119
97 19 24 46 56 58 70 63 67 114 278 128 525 5 98 1 159 -20 334 -31 247 -76
505 -106 606 -12 39 -34 116 -50 172 -27 97 -64 201 -95 268 -53 113 -188 385
-202 406 -10 15 -35 55 -56 90 -121 207 -331 465 -562 692 -123 121 -209 189
-335 263 -140 84 -157 92 -265 139 -92 40 -111 45 -179 45 -87 0 -110 -10
-150 -69 -50 -72 -138 -359 -158 -516 -6 -49 -14 -94 -18 -98 -4 -5 -38 11
-76 35 -37 23 -106 63 -153 88 l-86 45 -5 50 c-3 28 -13 66 -22 85 -9 19 -39
89 -67 155 -51 119 -135 260 -189 319 -15 17 -54 66 -87 109 -65 88 -190 198
-321 285 -240 158 -573 331 -724 376 -30 9 -68 21 -85 26 -77 23 -272 61 -387
75 -120 14 -160 15 -288 8z m340 -98 c118 -19 389 -103 548 -169 179 -75 443
-215 527 -281 22 -17 78 -59 125 -92 96 -69 262 -229 306 -295 16 -23 48 -68
70 -98 46 -62 112 -182 136 -250 23 -65 43 -149 36 -156 -3 -3 -28 5 -55 17
-26 13 -52 24 -58 25 -38 8 -151 40 -155 44 -3 3 -12 6 -20 7 -8 1 -53 12
-100 23 -150 38 -390 77 -560 91 -162 14 -605 5 -785 -15 -78 -9 -205 -32
-283 -51 -134 -33 -346 -99 -367 -115 -5 -4 -21 -11 -35 -15 -38 -11 -155 -68
-158 -77 -2 -4 -8 -8 -13 -8 -5 0 -26 -10 -47 -23 -37 -23 -103 -60 -237 -132
-38 -21 -104 -62 -147 -91 -42 -30 -79 -54 -83 -54 -13 0 -94 -74 -89 -82 3
-4 0 -8 -7 -8 -18 0 -195 -186 -191 -200 3 -7 0 -10 -6 -7 -5 4 -24 -10 -41
-30 -17 -20 -31 -34 -31 -31 0 2 -21 -15 -47 -39 -34 -32 -54 -43 -72 -41 -23
3 -27 9 -33 58 -3 30 -7 159 -8 285 -3 239 17 447 56 605 9 36 25 106 34 157
23 112 80 250 135 323 23 30 61 82 85 115 24 33 49 65 55 70 6 6 32 38 57 71
26 34 66 77 89 95 23 19 67 55 99 81 65 54 170 118 280 170 177 85 224 95 655
142 64 7 243 -3 335 -19z m2625 -985 c33 -18 80 -45 105 -60 25 -15 94 -56
153 -91 60 -35 116 -71 126 -79 138 -123 190 -174 195 -195 4 -14 13 -25 21
-25 17 0 141 -127 197 -201 20 -27 56 -73 80 -102 24 -28 75 -99 113 -157 37
-58 73 -109 80 -115 11 -10 75 -112 75 -120 0 -2 26 -48 57 -102 114 -197 152
-273 198 -399 26 -71 47 -143 46 -161 0 -17 -9 -58 -21 -89 -33 -95 -25 -116
26 -69 l27 25 34 -132 c37 -151 70 -350 79 -483 l6 -90 -69 -67 c-99 -98 -166
-128 -316 -141 -99 -9 -132 -8 -210 6 -50 9 -130 21 -177 27 -47 6 -107 15
-135 20 -80 14 -286 12 -366 -5 -82 -17 -71 -24 -134 77 -16 26 -59 94 -95
150 -86 137 -202 368 -249 497 -49 133 -155 467 -175 547 -34 139 -66 422 -66
584 0 184 45 586 79 704 34 115 95 265 113 278 7 5 42 7 78 5 50 -3 79 -12
125 -37z m-1565 -204 c102 -15 219 -36 260 -47 127 -34 185 -52 197 -61 7 -6
21 -7 31 -4 11 4 24 0 32 -9 7 -8 20 -15 30 -15 32 0 140 -61 140 -79 0 -34
-49 -161 -78 -203 -67 -97 -152 -153 -322 -212 -93 -32 -280 -82 -340 -91 -25
-3 -63 -13 -85 -21 -22 -7 -83 -21 -135 -29 -52 -9 -152 -27 -221 -40 -153
-30 -380 -36 -569 -17 -69 7 -183 17 -255 23 -71 6 -175 17 -230 24 -227 32
-261 35 -383 34 -70 0 -170 -6 -222 -13 -85 -12 -127 -11 -92 1 6 3 12 9 12
14 0 5 -17 -2 -37 -15 -21 -14 -56 -28 -78 -32 -56 -9 -165 -38 -265 -69 -47
-15 -93 -29 -102 -32 -10 -3 -18 0 -18 6 0 6 7 11 16 11 8 0 13 4 10 8 -8 13
233 249 285 279 16 10 29 21 29 25 0 4 6 8 13 8 7 0 27 14 45 30 18 17 37 30
41 30 5 0 24 12 44 28 20 15 65 45 101 67 36 22 66 43 66 48 0 4 5 7 11 7 14
0 121 50 139 66 8 7 18 13 23 13 4 0 35 14 70 30 125 60 358 144 512 186 97
26 217 43 550 75 44 5 195 7 335 5 212 -2 286 -7 440 -29z m851 -295 c148 -87
160 -95 177 -123 9 -16 22 -28 29 -28 8 0 13 -12 12 -32 -1 -28 -2 -30 -7 -10
-4 13 -11 24 -17 25 -15 3 -19 -164 -5 -173 9 -6 9 -14 -2 -31 -10 -17 -12
-40 -8 -79 4 -30 7 -47 8 -37 1 10 6 16 10 13 4 -2 9 11 10 30 2 23 -1 33 -8
29 -5 -3 -10 1 -10 9 0 9 5 16 11 16 8 0 9 24 4 79 -5 55 -3 81 4 86 9 5 12
-21 12 -92 0 -54 1 -125 2 -158 2 -43 -1 -59 -10 -57 -7 1 -13 -2 -13 -8 0 -5
6 -10 14 -10 8 0 17 -7 20 -16 10 -25 7 -118 -5 -134 -8 -11 -9 -4 -7 28 2 23
0 42 -4 42 -5 0 -8 -13 -8 -28 0 -16 -7 -37 -16 -48 -15 -18 -15 -18 -5 3 17
33 13 51 -5 28 -16 -20 -16 -19 -9 4 5 16 4 21 -4 17 -6 -4 -11 -3 -11 3 0 13
-51 64 -57 57 -3 -2 7 -31 21 -63 48 -112 104 -259 139 -368 42 -130 110 -417
127 -530 6 -44 27 -134 47 -200 38 -128 59 -225 93 -425 44 -262 63 -323 34
-110 -14 108 -29 352 -18 302 9 -38 22 -14 17 30 -4 29 -3 39 5 34 7 -4 12
-25 12 -46 0 -33 3 -38 17 -33 13 5 15 2 10 -11 -4 -10 -7 -23 -8 -29 0 -7 -3
-4 -7 5 -5 11 -12 14 -20 9 -10 -6 -8 -17 9 -49 23 -43 39 -54 39 -27 0 22 12
18 34 -11 14 -20 16 -28 6 -34 -8 -5 -9 -10 -1 -14 19 -12 24 42 6 70 -14 22
-22 25 -48 20 -26 -4 -28 -4 -14 5 10 6 32 7 49 4 20 -5 33 -3 38 5 4 7 5 -9
2 -35 -3 -35 -2 -46 7 -41 6 4 8 18 5 32 -7 25 10 34 19 10 10 -24 -4 -56 -24
-56 -11 0 -19 -4 -19 -9 0 -5 -7 -16 -15 -25 -13 -13 -13 -19 -3 -36 16 -26
28 -26 21 0 -7 26 5 25 41 -4 25 -21 27 -27 18 -52 -5 -16 -15 -28 -22 -26 -6
1 -2 -11 10 -28 25 -35 30 -37 23 -10 -4 16 0 20 19 20 14 0 33 -9 42 -19 10
-11 24 -17 32 -14 21 8 17 -6 -8 -26 l-22 -18 26 -28 c22 -23 26 -40 32 -113
4 -48 11 -91 16 -97 14 -17 24 -155 11 -155 -6 0 -11 14 -11 30 0 57 -18 30
-26 -37 -3 -38 -12 -71 -18 -75 -11 -7 6 -25 47 -49 21 -12 36 14 19 34 -6 7
-7 19 -3 26 14 22 21 -42 25 -228 2 -107 1 -137 -3 -76 -8 129 -21 81 -21 -76
0 -104 -1 -109 -21 -109 -16 0 -19 -4 -14 -17 4 -10 11 -35 15 -57 4 -21 12
-41 17 -45 5 -3 14 -37 21 -76 7 -38 15 -82 18 -97 4 -18 2 -28 -5 -28 -6 0
-11 17 -11 40 0 33 -3 40 -20 40 -11 0 -20 -5 -20 -12 0 -6 -3 -8 -6 -5 -4 4
-2 12 4 19 13 16 19 79 8 96 -4 6 -16 12 -27 12 -22 0 -22 0 -9 34 10 28 5 52
-14 59 -8 3 -12 -19 -13 -82 -3 -148 -3 -147 -12 -131 -5 8 -16 67 -26 130
-22 146 -28 173 -42 177 -6 2 -13 -13 -16 -34 -3 -21 -9 -54 -12 -73 -5 -26
-4 -31 4 -20 7 10 11 11 11 3 0 -24 -2 -28 -12 -25 -6 1 -7 -9 -3 -28 4 -19 1
-41 -9 -60 -8 -17 -17 -56 -20 -88 -4 -39 -3 -49 3 -32 5 14 10 41 10 60 1 23
4 31 10 22 4 -8 11 -12 15 -10 4 1 10 -55 13 -127 2 -71 2 -127 -2 -124 -3 4
-9 58 -12 120 -6 120 -13 159 -13 71 0 -40 -4 -52 -15 -52 -8 0 -15 -3 -15 -7
0 -5 -5 -37 -10 -71 -9 -68 -3 -112 11 -76 4 10 8 43 8 72 1 33 5 51 11 47 6
-3 10 -40 10 -81 0 -48 4 -73 10 -69 6 3 10 -3 10 -14 0 -23 -15 -28 -23 -8
-3 6 -3 -4 -1 -23 5 -30 4 -33 -8 -19 -11 14 -15 14 -26 3 -6 -7 -12 -18 -12
-24 0 -6 -4 -8 -10 -5 -6 4 -4 15 6 30 11 17 14 34 9 52 l-8 28 -9 -33 c-18
-67 -34 -182 -26 -194 4 -7 7 -24 7 -38 0 -23 -1 -23 -9 -5 -7 19 -9 18 -19
-8 -16 -42 -14 -97 4 -97 8 0 15 7 15 15 0 8 5 15 10 15 6 0 10 -13 10 -30 0
-17 5 -30 13 -30 13 0 51 -60 42 -68 -3 -3 -5 0 -5 6 0 7 -4 12 -9 12 -9 0 -6
-26 6 -60 3 -8 6 -31 8 -50 1 -19 0 -29 -2 -22 -8 21 -25 13 -18 -8 4 -13 2
-20 -7 -20 -15 0 -15 34 -3 102 6 31 4 38 -14 50 -15 9 -21 23 -21 48 -1 35
-1 35 -14 11 l-14 -24 -6 21 c-10 32 -22 19 -29 -30 -3 -24 -9 -61 -13 -82 -5
-28 -4 -37 4 -32 6 4 9 13 6 20 -3 8 -1 17 5 21 6 3 11 -2 12 -12 0 -10 3 -13
6 -5 2 6 11 12 19 12 10 0 14 -12 14 -42 0 -62 -9 -88 -31 -88 -22 0 -25 -16
-5 -36 8 -7 17 -32 21 -54 10 -56 25 -50 18 7 -4 40 -2 51 15 66 19 17 20 17
24 -12 3 -19 0 -27 -7 -25 -8 3 -10 -14 -7 -56 3 -38 0 -66 -7 -73 -8 -8 -11
-5 -11 11 0 12 -5 22 -11 22 -7 0 -9 -13 -4 -38 6 -36 -34 -225 -51 -241 -4
-3 -4 2 -1 12 8 22 -26 92 -49 101 -14 5 -16 2 -11 -24 6 -29 -7 -43 -16 -17
-2 6 -4 -12 -3 -41 1 -28 -2 -52 -6 -52 -5 0 -8 -18 -8 -40 0 -29 4 -40 15
-40 15 0 21 44 16 113 -1 15 2 27 6 27 5 0 9 -53 9 -118 l0 -118 -40 -3 c-22
-1 -43 -4 -48 -7 -4 -3 -6 12 -3 33 2 21 0 45 -5 53 -7 11 -10 7 -10 -19 0
-25 -4 -32 -15 -27 -8 3 -15 1 -15 -4 0 -6 5 -10 10 -10 6 0 10 -8 10 -17 0
-15 -2 -16 -10 -3 -7 11 -10 5 -10 -23 0 -34 3 -38 22 -35 11 2 23 -3 25 -9 3
-8 -5 -14 -21 -14 -48 -3 -51 -4 -58 -14 -11 -15 -9 -78 3 -95 9 -13 10 -12 5
3 -3 11 -2 16 4 12 15 -10 12 -32 -6 -39 -13 -5 -15 -14 -9 -42 4 -24 3 -34
-4 -29 -16 9 -13 -4 3 -21 13 -12 17 -11 29 7 11 14 23 20 43 17 26 -3 27 -4
11 -20 -10 -10 -25 -14 -34 -11 -14 6 -15 -1 -10 -50 6 -63 -8 -69 -19 -9 -4
20 -17 46 -28 57 -19 17 -21 26 -13 65 4 25 6 67 3 95 -3 27 1 124 9 215 33
367 44 1106 25 1575 -18 441 -66 942 -110 1150 -11 50 -28 133 -40 185 -11 52
-20 112 -20 133 0 58 -117 502 -152 580 -17 37 -32 67 -34 67 -1 0 -9 -3 -17
-6 -14 -5 -14 -11 -2 -51 12 -39 12 -48 -1 -60 -17 -17 -17 -19 -3 -44 7 -15
7 -29 0 -52 -8 -21 -8 -34 -1 -41 7 -7 10 -4 10 8 0 9 4 15 9 12 4 -3 7 -30 6
-60 -1 -30 4 -65 12 -78 12 -22 12 -21 7 12 -4 26 -3 31 5 20 6 -8 11 -22 11
-32 0 -9 5 -18 10 -20 6 -2 13 -21 17 -43 l6 -40 -22 27 c-12 15 -19 33 -15
39 4 8 3 9 -4 5 -7 -4 -12 -3 -12 3 0 5 -6 16 -14 24 -18 17 -21 37 -11 60 9
22 -3 37 -15 17 -5 -8 -13 -11 -17 -6 -4 5 -2 11 5 13 6 3 12 9 12 15 0 6 -7
7 -16 4 -13 -5 -15 -1 -12 18 4 17 1 23 -8 19 -10 -4 -11 2 -4 29 13 44 12 59
-2 28 l-11 -25 -5 24 c-2 16 -6 20 -11 12 -9 -14 -97 184 -107 241 -3 21 -13
43 -21 50 -12 10 -14 9 -11 -8 2 -13 -2 -18 -14 -16 -28 4 -23 -16 41 -170 91
-219 124 -295 175 -396 26 -52 46 -97 44 -102 -6 -16 -330 398 -475 607 -46
68 -90 128 -97 135 -7 7 -38 54 -70 103 -32 50 -63 97 -70 106 -6 9 -38 55
-70 102 -32 48 -65 87 -73 87 -7 0 -13 5 -13 11 0 5 -5 7 -12 3 -7 -4 -8 -3
-4 4 7 12 -23 61 -38 62 -5 0 -6 -45 -2 -102 10 -156 18 -218 26 -213 4 2 12
-20 18 -50 11 -53 8 -84 -9 -95 -14 -10 2 -49 17 -43 20 7 17 -7 -3 -23 -16
-12 -16 -13 -1 -14 9 0 20 12 26 28 l9 27 5 -31 c2 -20 0 -30 -6 -28 -6 2 -17
0 -25 -5 -12 -8 -12 -14 -1 -40 14 -36 18 -37 36 -13 11 14 13 14 14 2 0 -8
-4 -21 -9 -29 -10 -16 -4 -41 11 -41 5 0 6 9 3 20 -4 11 -2 20 4 20 6 0 11
-16 11 -36 0 -28 3 -35 15 -30 13 5 14 2 4 -16 l-12 -22 -8 21 c-4 11 -12 24
-18 28 -14 8 -14 9 8 -53 11 -29 15 -54 10 -58 -5 -3 -9 4 -9 15 0 11 -4 22
-9 25 -5 4 -12 24 -16 46 -4 22 -10 40 -15 40 -4 0 -4 -17 2 -37 5 -21 11 -45
12 -53 9 -48 28 -100 37 -100 6 0 9 6 6 13 -3 8 -1 20 4 28 8 12 10 12 8 -1
-4 -36 0 -39 28 -25 15 8 30 12 34 10 8 -6 52 -95 78 -161 l19 -51 -35 -12
c-19 -7 -43 -21 -54 -32 -10 -10 -25 -16 -33 -13 -14 5 -59 64 -158 206 -99
140 -260 372 -290 414 -36 53 -164 283 -193 349 -55 124 -96 205 -105 205 -15
0 -13 -10 30 -169 52 -192 87 -383 94 -501 0 -14 5 -28 9 -31 9 -6 19 -154 21
-304 l1 -90 -36 0 c-20 0 -44 -7 -54 -15 -14 -11 -17 -11 -11 -1 5 8 3 17 -5
23 -11 8 -10 9 4 4 24 -8 22 16 -3 39 -12 10 -19 24 -17 30 3 6 -4 22 -16 35
-14 17 -21 21 -24 12 -4 -10 -8 -9 -18 4 -9 12 -10 27 -4 48 5 17 6 39 3 48
-3 10 -1 18 5 18 6 0 11 -7 11 -15 0 -8 6 -15 13 -15 6 0 23 -9 37 -20 34 -27
60 -26 29 0 -50 43 -107 98 -110 108 -5 13 -97 82 -109 82 -21 0 -21 -30 0
-60 12 -16 16 -30 10 -30 -6 0 -14 8 -17 18 -4 9 -9 19 -12 22 -3 3 -16 19
-28 36 -19 27 -20 31 -5 30 9 0 20 -5 24 -11 4 -6 8 -2 8 9 0 12 -5 16 -15 13
-8 -4 -17 -2 -21 4 -4 6 -11 5 -22 -3 -13 -11 -15 -10 -9 13 7 26 -12 56 -26
42 -4 -3 -7 2 -7 11 0 10 -5 16 -11 14 -6 -2 -27 11 -48 30 -52 48 -171 132
-187 132 -20 0 -18 -13 16 -125 61 -200 85 -270 94 -276 5 -4 6 -17 3 -29 -3
-12 -2 -30 3 -39 5 -9 11 -24 14 -34 3 -10 10 -16 15 -13 13 9 19 -26 7 -45
-6 -11 -4 -43 5 -94 7 -42 15 -72 17 -66 2 7 10 6 23 -2 20 -12 26 -37 9 -37
-13 0 -13 -21 0 -40 9 -13 11 -13 20 0 8 12 10 11 10 -6 0 -11 4 -24 9 -30 5
-5 16 -40 24 -79 29 -128 30 -135 14 -135 -17 0 -28 35 -22 65 3 11 1 34 -5
50 -8 24 -9 17 -5 -35 3 -36 8 -85 11 -109 6 -43 -3 -60 -33 -61 -18 0 -45 31
-39 46 3 8 -1 14 -10 14 -11 0 -14 5 -10 16 4 11 2 15 -8 11 -13 -5 -42 38
-38 56 1 4 -5 7 -13 7 -8 0 -14 3 -13 8 2 4 -19 39 -45 79 -26 40 -47 75 -47
78 0 3 9 1 20 -5 14 -8 20 -8 20 0 0 19 -28 40 -43 34 -16 -6 -38 23 -36 48 0
7 5 2 11 -12 6 -14 12 -20 15 -13 8 21 -16 53 -34 46 -13 -5 -15 -2 -10 11 5
12 2 16 -10 14 -11 -2 -19 5 -21 17 -2 16 -1 17 7 5 6 -8 11 -10 11 -4 0 5
-12 26 -26 45 -15 19 -24 26 -21 17 3 -10 2 -20 -3 -23 -9 -6 -23 28 -24 60
-1 11 -7 19 -13 18 -7 -2 -16 9 -19 24 -9 33 -34 64 -47 56 -6 -3 -7 -1 -3 5
4 7 2 12 -3 12 -6 0 -11 5 -11 11 0 15 -161 209 -228 275 -57 55 -80 68 -67
37 4 -10 11 -45 16 -78 5 -33 18 -109 29 -170 11 -60 20 -131 20 -157 -1 -27
4 -48 10 -48 5 0 10 -8 10 -18 0 -10 5 -23 11 -29 6 -6 9 -19 6 -29 -4 -16 -5
-15 -6 4 0 12 -5 22 -10 22 -5 0 -11 6 -14 13 -2 6 -3 3 -1 -8 2 -11 4 -33 4
-48 0 -16 4 -26 9 -22 6 3 7 -9 4 -31 -4 -27 -3 -35 5 -30 8 4 12 0 12 -11 0
-23 34 -75 43 -66 10 9 8 -10 -2 -26 -8 -12 -13 -12 -24 -3 -12 10 -16 10 -20
-1 -4 -10 4 -14 25 -15 38 -1 57 -19 60 -55 1 -15 6 -27 10 -27 4 0 8 -7 8
-16 0 -8 10 -36 21 -62 18 -39 40 -150 24 -116 -6 13 -55 6 -55 -7 0 -8 15
-13 33 -10 4 0 7 -6 7 -15 0 -8 -4 -12 -10 -9 -14 9 -12 -1 4 -17 22 -23 30
-58 13 -58 -9 0 -17 -4 -19 -9 -1 -5 -9 -3 -16 5 -11 12 -9 14 8 14 21 0 25 8
12 25 -11 15 -49 35 -69 36 -16 0 -15 2 2 9 17 7 17 9 3 9 -26 1 -22 19 5 24
18 4 18 4 -6 6 l-28 1 5 -57 c5 -50 4 -54 -8 -38 -8 11 -12 25 -9 31 5 13 -34
30 -44 20 -10 -10 -64 67 -103 150 -45 96 -57 134 -41 134 6 0 11 5 11 11 0 6
-7 8 -16 5 -12 -5 -15 0 -13 22 3 20 -4 36 -22 53 -14 13 -49 71 -77 129 -44
92 -68 161 -113 325 -6 22 -16 54 -21 70 -5 17 -16 93 -23 169 -14 135 -28
186 -39 135 -28 -131 -35 -172 -41 -224 -5 -42 -4 -57 3 -50 6 6 13 35 15 65
2 30 4 2 5 -63 1 -68 -2 -116 -7 -113 -5 3 -7 24 -4 46 3 22 2 40 -4 40 -9 0
-10 -33 -4 -120 l4 -45 7 35 c5 25 7 11 7 -50 0 -64 -2 -74 -6 -40 -5 38 -7
41 -13 20 -9 -37 -8 -234 2 -315 8 -68 8 -67 8 40 -1 61 0 130 1 155 4 79 18
14 20 -88 0 -51 5 -102 11 -112 11 -20 14 -57 4 -48 -3 4 -22 -5 -41 -18 -36
-24 -40 -25 -193 -28 l-44 -1 -13 55 c-7 30 -18 125 -24 210 -6 85 -13 157
-15 159 -13 14 -28 -61 -44 -214 -17 -169 -23 -200 -39 -212 -20 -16 -93 -17
-109 -1 -8 8 -15 8 -27 -2 -10 -8 -36 -11 -79 -8 -36 2 -62 0 -60 -4 3 -4 27
-8 55 -8 58 0 94 -27 84 -63 -3 -12 -10 -38 -15 -57 -18 -70 -33 -278 -33
-445 1 -97 -3 -161 -7 -150 -5 11 -9 65 -11 120 -1 85 -3 93 -10 55 -12 -71
-11 -228 2 -210 8 11 9 -4 4 -53 -5 -66 2 -144 13 -133 6 7 32 -13 32 -25 0
-14 -28 -11 -33 4 -3 6 -5 -13 -5 -43 l0 -55 15 38 c18 43 39 51 28 10 -8 -32
-9 -36 -7 -82 2 -41 18 -31 25 14 4 28 4 28 6 -6 0 -23 -6 -44 -19 -59 -12
-14 -18 -31 -15 -39 14 -33 18 -121 7 -121 -7 0 -15 12 -18 27 -4 15 -13 34
-21 41 -11 11 -13 10 -13 -8 0 -12 4 -19 8 -16 4 3 7 -8 6 -25 -1 -16 2 -29 6
-29 13 0 32 -64 21 -68 -5 -2 -7 -10 -4 -18 3 -9 -1 -14 -14 -14 -13 0 -25 14
-37 42 -11 22 -38 82 -61 132 -50 107 -121 314 -137 402 -7 35 -16 60 -20 58
-4 -3 -7 3 -6 13 3 43 -3 107 -10 96 -4 -6 -8 8 -9 32 -1 24 -6 52 -11 62 -5
10 -13 62 -17 117 -4 54 -14 110 -21 125 -17 31 -19 237 -4 409 10 120 6 150
-15 132 -19 -16 -36 -182 -38 -370 -1 -94 -4 -170 -7 -170 -4 0 -5 -13 -2 -30
3 -18 -2 -35 -12 -45 -10 -10 -16 -32 -15 -58 0 -23 -2 -103 -4 -177 -3 -74
-3 -117 0 -95 2 22 8 44 13 49 5 5 7 23 5 40 -4 28 -4 29 4 6 8 -22 9 -20 10
17 1 55 21 68 21 13 0 -24 -7 -48 -15 -57 -12 -11 -14 -26 -9 -58 4 -27 2 -45
-5 -49 -6 -4 -11 -15 -11 -24 0 -15 2 -15 10 -2 8 13 10 12 10 -2 0 -10 -4
-18 -10 -18 -13 0 -13 -127 0 -135 6 -4 10 5 10 19 0 14 5 26 11 26 7 0 9 -10
7 -25 -3 -14 -1 -28 3 -31 13 -8 11 -74 -2 -74 -7 0 -8 11 -4 30 4 19 3 30 -4
30 -12 0 -12 1 -15 -57 -1 -24 1 -38 5 -32 11 18 20 -7 13 -34 -3 -14 -1 -28
5 -31 6 -4 10 -22 10 -39 l-2 -32 -7 35 c-6 28 -7 20 -8 -35 0 -52 2 -62 8
-40 7 28 8 27 11 -15 1 -25 1 -61 0 -80 -1 -19 2 -51 8 -70 12 -38 37 -203 52
-340 17 -170 39 -471 34 -479 -2 -5 1 -31 9 -60 7 -28 9 -51 5 -51 -5 0 -9 -5
-9 -11 0 -5 4 -8 9 -5 10 7 21 -17 20 -42 -1 -11 -4 -8 -10 8 -6 18 -7 9 -4
-30 3 -30 5 -68 6 -85 0 -26 2 -27 9 -10 5 13 8 -2 7 -45 -1 -93 13 -220 25
-220 5 0 7 9 3 19 -3 11 -2 22 3 25 10 6 27 -112 18 -122 -3 -3 -6 4 -6 16 0
11 -4 24 -10 27 -5 3 -7 0 -4 -8 2 -7 8 -42 12 -76 7 -63 22 -81 33 -39 4 16
8 3 13 -39 9 -68 -4 -113 -15 -53 l-6 35 -2 -37 c0 -20 3 -39 9 -43 5 -3 7
-12 4 -19 -3 -7 2 -33 10 -57 9 -24 16 -50 16 -57 0 -7 12 -29 26 -48 17 -22
28 -49 29 -75 1 -23 7 -44 12 -48 6 -3 13 -19 17 -36 4 -16 9 -38 13 -49 3
-11 1 -16 -5 -12 -5 3 -13 21 -16 41 -4 19 -12 37 -17 41 -8 4 -9 -4 -4 -27
12 -55 24 -81 35 -74 5 3 10 -1 10 -9 0 -10 -6 -13 -15 -10 -8 4 -15 1 -15 -6
0 -6 4 -9 9 -6 5 3 14 -1 21 -10 10 -11 10 -18 2 -26 -9 -9 -12 -7 -12 7 0 10
-3 15 -6 12 -8 -7 24 -79 39 -89 6 -4 5 -12 -5 -22 -14 -13 -19 -8 -46 52 -17
37 -40 90 -50 117 -11 28 -35 88 -54 135 -19 47 -52 141 -72 210 -21 69 -53
170 -72 225 -18 55 -54 167 -79 250 -25 82 -49 153 -54 158 -10 10 -26 -11
-35 -46 -5 -22 -4 -27 6 -21 9 5 9 2 -1 -10 -16 -19 -18 -161 -6 -329 4 -56 3
-87 -4 -87 -5 0 -8 16 -6 37 l5 38 -10 -40 c-9 -32 -8 -42 5 -51 19 -14 20
-40 1 -47 -10 -4 -16 3 -19 21 -2 15 -4 0 -5 -33 0 -33 4 -69 9 -80 7 -15 8
-9 5 25 -3 42 -3 43 8 17 l12 -28 12 51 c7 28 13 64 13 78 2 38 7 13 23 -110
12 -99 12 -111 -5 -160 -15 -45 -19 -50 -25 -31 -6 21 -16 28 -37 24 -5 -1 -5
8 -2 20 6 17 4 21 -8 16 -24 -9 -42 45 -82 238 -102 503 -143 993 -114 1382 6
79 8 148 4 151 -12 13 -32 -28 -44 -91 -7 -34 -19 -84 -28 -111 -11 -34 -13
-51 -5 -54 14 -4 5 -138 -11 -171 -9 -18 -9 -25 -1 -28 9 -3 9 -10 0 -28 -6
-14 -17 -23 -23 -20 -10 3 -13 -12 -14 -58 -1 -53 -2 -58 -10 -32 -5 17 -7 44
-4 60 5 29 5 29 -6 5 -6 -14 -9 -44 -6 -67 2 -23 0 -46 -5 -51 -5 -5 -13 -36
-18 -68 -6 -45 -5 -64 6 -81 18 -28 18 -41 -1 -59 -12 -12 -14 -30 -8 -87 6
-72 23 -102 51 -92 8 3 10 0 5 -8 -4 -6 -8 -15 -9 -19 -1 -5 -2 -11 -3 -15 -1
-5 -5 -2 -10 6 -11 17 -34 4 -27 -15 3 -8 1 -14 -4 -14 -16 0 -23 42 -9 52 11
7 11 11 2 15 -7 2 -13 13 -13 23 0 10 -7 20 -15 24 -15 5 -15 4 -20 -91 -1
-18 2 -33 6 -33 5 0 9 -7 9 -15 0 -8 4 -15 9 -15 5 0 11 -9 14 -20 4 -17 2
-20 -13 -15 -15 5 -17 2 -13 -17 5 -23 5 -23 -10 -3 -16 20 -16 19 -17 -8 0
-15 -7 -30 -15 -33 -9 -4 -15 -11 -14 -18 1 -6 -3 -24 -9 -39 -7 -16 -12 -32
-12 -37 0 -5 -5 -12 -10 -15 -7 -4 -9 2 -4 19 11 46 -4 28 -21 -25 -26 -78
-73 -156 -120 -199 l-27 -25 7 25 c4 14 15 41 25 60 21 42 83 235 98 305 37
165 77 459 103 735 5 58 18 166 29 240 29 203 48 414 70 780 11 189 15 238 50
560 35 321 81 568 176 940 53 210 82 281 192 463 132 221 184 270 364 346 90
38 284 89 295 77 3 -3 -12 -27 -34 -53 -39 -48 -165 -232 -254 -375 -87 -137
-166 -309 -223 -481 -48 -143 -27 -131 28 15 20 54 40 106 45 115 6 10 42 83
81 163 90 183 297 495 393 594 l42 43 115 12 c270 27 588 20 840 -19 217 -33
310 -41 500 -41 227 0 365 13 552 50 429 86 787 213 885 313 45 46 132 190
152 251 7 20 16 37 20 37 4 0 46 -22 92 -49z m226 -759 c2 -26 2 -26 -7 -4 -5
12 -15 22 -22 22 -9 0 -9 3 2 10 18 11 23 6 27 -28z m28 -69 c-9 -37 -18 -20
-9 19 4 18 9 27 11 20 3 -7 2 -24 -2 -39z m21 -41 c-12 -11 -17 7 -9 34 l8 29
3 -28 c2 -16 1 -31 -2 -35z m-1096 -12 c6 -11 8 -20 6 -20 -3 0 -10 9 -16 20
-6 11 -8 20 -6 20 3 0 10 -9 16 -20z m1107 -72 c-3 -7 -5 -2 -5 12 0 14 2 19
5 13 2 -7 2 -19 0 -25z m-1057 -79 c0 -11 5 -19 11 -19 7 0 9 -10 5 -25 -4
-14 -2 -25 3 -25 5 0 11 -9 14 -21 3 -11 1 -19 -5 -17 -10 4 -39 72 -52 124
-6 24 -5 26 8 15 9 -8 16 -22 16 -32z m15 31 c3 -5 1 -10 -4 -10 -6 0 -11 5
-11 10 0 6 2 10 4 10 3 0 8 -4 11 -10z m1074 -45 l0 -20 -9 20 c-5 11 -9 29
-9 40 l0 20 9 -20 c5 -11 9 -29 9 -40z m-1049 10 c0 -12 -19 -12 -23 0 -4 9
-1 12 9 8 7 -3 14 -7 14 -8z m10 -40 c0 -8 -4 -15 -10 -15 -5 0 -10 7 -10 15
0 8 5 15 10 15 6 0 10 -7 10 -15z m66 -47 c34 -57 139 -214 187 -279 30 -42
160 -477 173 -581 6 -45 0 -48 -20 -10 l-14 27 -7 -27 c-4 -15 -5 -33 -2 -40
3 -7 6 -3 6 10 1 13 5 20 11 17 9 -6 5 -47 -7 -68 -8 -13 -32 40 -28 60 12 61
13 83 5 83 -6 0 -10 -13 -10 -29 0 -37 -12 -46 -28 -20 -10 15 -10 19 2 19 21
0 28 44 11 76 -8 16 -15 35 -15 42 0 6 -5 12 -11 12 -6 0 -9 -7 -5 -15 3 -9 0
-15 -10 -15 -11 0 -12 4 -5 18 7 12 4 24 -10 41 -10 13 -20 37 -20 55 -1 29
-2 28 -12 -11 -12 -53 -24 -56 -20 -5 2 28 1 31 -5 13 l-8 -24 -17 26 c-9 14
-17 29 -17 32 0 4 -18 44 -40 91 -22 47 -40 89 -40 94 0 5 9 11 19 15 22 7 35
45 21 59 -6 6 -12 -2 -16 -22 -4 -18 -11 -32 -16 -32 -14 0 -51 91 -51 128 -1
17 -6 32 -11 32 -6 0 -4 5 4 10 12 8 13 13 3 30 -7 11 -13 30 -13 42 1 18 5
14 20 -17 12 -26 15 -44 9 -51 -6 -8 -3 -13 11 -17 16 -4 19 -2 11 7 -6 7 -8
15 -5 19 9 8 -6 68 -16 62 -7 -5 -36 91 -32 107 1 4 -6 4 -14 1 -12 -4 -15 -2
-12 8 3 8 -1 21 -8 29 -13 16 -9 60 6 60 5 0 25 -28 46 -62z m-66 -37 c0 -6
-4 -13 -10 -16 -5 -3 -10 1 -10 9 0 9 5 16 10 16 6 0 10 -4 10 -9z m-100 -46
c0 -5 -5 -3 -10 5 -8 12 -10 12 -10 1 0 -8 -2 -12 -5 -9 -3 3 -2 13 1 22 5 14
9 15 15 4 5 -7 9 -17 9 -23z m146 -64 c-1 -32 -4 -57 -7 -55 -10 6 -18 70 -12
93 10 40 20 20 19 -38z m-485 -111 c53 -77 126 -178 182 -251 39 -51 46 -65
35 -75 -21 -21 -208 -56 -208 -39 0 19 -56 287 -76 365 -13 52 -24 103 -24
113 0 20 0 20 91 -113z m-652 53 c51 -55 152 -192 194 -264 21 -35 64 -104 94
-154 69 -112 148 -259 167 -311 8 -21 30 -73 49 -114 74 -161 127 -286 127
-302 0 -9 -5 -20 -10 -23 -6 -4 0 -15 14 -26 14 -11 27 -27 30 -37 6 -18 30
-188 41 -282 5 -44 34 -159 60 -237 2 -7 -8 -19 -22 -27 l-26 -13 24 -15 c32
-20 270 -42 374 -34 44 3 137 11 206 16 134 10 321 38 454 68 58 13 81 23 83
35 3 13 -4 17 -23 17 -31 0 -31 7 -1 110 26 92 15 366 -19 453 -7 15 2 17 94
17 96 0 102 -1 110 -22 7 -19 27 -186 56 -473 16 -150 36 -561 47 -939 l12
-430 -60 -54 c-32 -30 -95 -82 -139 -115 -44 -34 -82 -63 -85 -67 -23 -27
-111 -83 -207 -131 -128 -65 -163 -71 -249 -42 -27 9 -69 29 -93 45 -41 26
-47 27 -65 13 -83 -61 -305 -195 -323 -195 -5 0 -40 -20 -79 -44 -129 -80
-292 -99 -440 -51 -100 33 -141 32 -214 -4 -85 -42 -174 -42 -620 -1 -125 11
-368 45 -440 61 -77 17 -232 71 -308 107 -128 60 -276 225 -308 343 -44 165
-88 675 -59 686 6 2 28 -27 50 -64 21 -37 61 -94 87 -127 26 -32 48 -65 48
-72 0 -23 -12 -44 -22 -38 -6 4 -5 10 3 15 7 4 11 11 7 14 -11 11 -53 -40 -50
-60 3 -17 1 -17 -7 -5 -9 12 -11 11 -11 -7 0 -12 4 -24 9 -27 11 -7 2 -46 -10
-46 -5 0 -3 -13 6 -29 11 -23 19 -28 36 -24 17 5 21 3 16 -9 -4 -11 2 -18 16
-22 34 -9 49 -7 41 6 -5 8 3 10 27 6 39 -6 62 0 53 13 -3 6 5 7 20 3 15 -3 32
-2 39 3 22 17 49 24 41 10 -5 -8 -2 -8 9 2 9 7 23 11 31 8 8 -3 17 1 20 9 3 8
14 14 24 14 10 0 23 5 30 12 9 9 12 9 12 0 0 -7 12 -12 27 -12 26 0 26 1 7 15
-18 14 -16 15 21 10 26 -3 33 -2 21 3 -19 8 -19 9 -1 15 10 4 25 5 34 3 9 -3
27 4 41 15 21 17 22 19 3 10 -26 -13 -33 -14 -33 -2 0 5 10 12 23 16 19 6 20
8 4 12 -10 3 -25 -1 -33 -8 -8 -6 -17 -9 -20 -6 -3 3 5 13 19 21 24 16 57 13
57 -5 0 -5 5 -9 11 -9 6 0 9 7 5 15 -3 9 0 15 10 15 11 0 14 5 10 16 -4 11 1
22 13 30 27 19 25 64 -3 65 -11 0 -15 3 -8 6 25 10 11 24 -18 18 -25 -5 -29
-4 -24 9 3 9 2 16 -4 16 -5 0 -12 -7 -16 -15 -7 -19 -45 -20 -52 -1 -3 7 -15
12 -27 10 -12 -2 -67 -6 -122 -9 -108 -6 -128 -8 -163 -20 -21 -7 -21 -8 -5
-21 17 -13 17 -13 -2 -14 -22 0 -35 17 -78 105 -63 129 -177 492 -177 563 0
12 8 25 18 29 9 4 32 19 50 35 18 15 38 28 45 28 7 0 24 -44 40 -107 38 -149
81 -255 138 -342 27 -40 46 -77 43 -82 -3 -5 4 -9 15 -9 17 0 20 -5 15 -29 -8
-40 8 -45 63 -21 26 12 57 25 68 30 11 5 58 23 105 41 196 73 291 114 397 170
159 85 154 79 160 177 3 48 0 88 -5 95 -6 7 -13 35 -17 62 -10 71 -50 210 -84
296 -32 80 -30 93 17 104 24 5 27 10 27 48 l0 42 -65 12 c-36 6 -72 10 -80 8
-8 -3 -51 -9 -95 -15 -44 -5 -91 -12 -105 -15 -22 -6 -28 -1 -45 32 -10 21
-26 59 -35 85 -15 43 -15 48 -1 51 11 3 9 5 -5 6 -17 1 -25 14 -42 74 -37 125
-99 474 -86 486 5 5 6 6 69 16 l40 6 75 -153 c123 -252 257 -436 451 -623 104
-100 291 -236 305 -223 2 3 -36 83 -84 179 -125 251 -211 441 -264 584 -59
162 -135 437 -173 625 -14 69 -29 137 -34 151 -5 15 -5 32 0 40 6 9 9 10 9 2
0 -7 37 -67 81 -135 94 -141 131 -198 185 -285 21 -34 69 -106 105 -160 64
-95 173 -262 316 -488 39 -61 110 -187 157 -280 l87 -170 -6 95 c-3 52 -10
122 -15 155 -67 419 -138 736 -204 907 -13 35 -43 113 -66 173 -23 61 -55 148
-70 195 -16 47 -32 93 -35 103 -11 28 8 20 44 -20z m1001 17 c0 -11 -4 -20
-10 -20 -5 0 -10 9 -10 20 0 11 5 20 10 20 6 0 10 -9 10 -20z m-770 -95 c7 -8
8 -15 2 -15 -5 0 -15 7 -22 15 -7 8 -8 15 -2 15 5 0 15 -7 22 -15z m70 -66 c0
-5 -4 -9 -10 -9 -5 0 -10 7 -10 16 0 8 5 12 10 9 6 -3 10 -10 10 -16z m-46 5
c9 -3 16 -11 16 -16 0 -6 -7 -8 -15 -4 -8 3 -15 0 -15 -6 0 -9 -3 -9 -11 -1
-6 6 -8 16 -5 22 8 13 9 13 30 5z m827 -11 c0 -10 2 -28 3 -40 2 -13 -2 -23
-7 -23 -5 0 -7 9 -4 20 3 11 1 20 -4 20 -5 0 -9 9 -9 20 0 25 20 27 21 3z
m-797 -31 c2 -4 -4 -8 -14 -8 -10 0 -16 4 -14 8 3 4 9 8 14 8 5 0 11 -4 14 -8z
m36 -32 c0 -5 -4 -10 -10 -10 -5 0 -10 5 -10 10 0 6 5 10 10 10 6 0 10 -4 10
-10z m197 -12 c-3 -8 -6 -5 -6 6 -1 11 2 17 5 13 3 -3 4 -12 1 -19z m-217 -37
c0 -9 -7 -3 -15 13 -19 36 -19 47 0 22 8 -11 15 -27 15 -35z m1989 -26 l0 -20
-9 20 c-5 11 -9 29 -9 40 l0 20 9 -20 c5 -11 9 -29 9 -40z m-3275 -35 c10 -36
36 -122 59 -192 23 -70 39 -129 37 -131 -3 -3 -24 -8 -47 -12 -35 -5 -42 -4
-47 12 -5 17 -36 346 -36 388 0 34 16 3 34 -65z m2528 -30 c60 -86 349 -424
420 -490 17 -16 28 -38 30 -59 l3 -33 -115 1 c-63 1 -124 4 -135 6 -11 2 -39
4 -62 4 -23 1 -48 7 -55 15 -8 7 -20 51 -27 97 -17 113 -95 429 -127 512 -8
20 -14 40 -14 44 0 9 47 -46 82 -97z m-1185 8 c-3 -8 -6 -5 -6 6 -1 11 2 17 5
13 3 -3 4 -12 1 -19z m1963 -25 c0 -13 5 -23 10 -23 6 0 10 -5 10 -11 0 -6 -6
-9 -14 -6 -8 3 -16 1 -19 -6 -2 -6 -3 11 -3 40 1 48 16 54 16 6z m-2306 -35
c-4 -6 -1 -14 6 -18 7 -4 9 -13 6 -19 -14 -22 -26 1 -25 47 0 40 2 43 10 24 5
-13 6 -28 3 -34z m926 -46 c19 -26 52 -71 73 -101 21 -29 69 -91 108 -136 38
-45 69 -87 69 -92 0 -6 -26 -11 -57 -12 -32 -1 -133 -11 -225 -22 -93 -11
-172 -17 -178 -14 -5 3 -10 18 -10 33 0 15 -11 92 -25 172 -13 80 -25 150 -25
156 0 7 30 17 68 24 37 7 83 19 102 26 54 20 62 17 100 -34z m1410 17 c0 -5
-4 -7 -10 -4 -22 14 -8 -35 15 -53 26 -20 35 -40 13 -25 -7 4 -22 6 -33 5 -14
-2 -16 0 -7 6 10 7 10 11 -3 22 -18 15 -19 32 -3 48 15 15 28 15 28 1z m-1774
-115 c11 -105 10 -110 -10 -126 -12 -10 -23 -18 -27 -18 -13 0 -124 219 -115
227 3 4 30 8 58 9 29 2 54 8 56 14 2 6 9 9 16 7 6 -2 16 -48 22 -113z m-526
64 c0 -5 -4 -8 -10 -8 -5 0 -10 10 -10 23 0 18 2 19 10 7 5 -8 10 -18 10 -22z
m2318 7 c-3 -3 -9 2 -12 12 -6 14 -5 15 5 6 7 -7 10 -15 7 -18z m-1156 -25
c-12 -10 -17 -22 -12 -29 4 -7 5 -21 3 -31 -3 -12 3 -23 17 -30 12 -6 19 -14
17 -17 -7 -6 30 -43 43 -43 5 0 6 -7 3 -17 -4 -11 -3 -14 5 -9 8 5 12 0 12
-13 0 -11 -5 -23 -12 -27 -7 -5 -8 -3 -4 5 5 8 1 14 -12 18 -14 3 -19 10 -15
21 5 11 2 14 -10 9 -9 -3 -17 -2 -17 4 0 5 -12 20 -27 33 -21 19 -27 31 -25
59 2 30 -1 36 -24 41 -31 8 -27 16 12 20 16 2 32 4 36 5 4 0 5 8 2 16 -5 11
-2 13 11 8 17 -6 17 -8 -3 -23z m160 16 c6 4 9 1 6 -6 -8 -24 -28 -23 -27 2 0
13 3 17 6 10 2 -6 9 -9 15 -6z m-1961 -23 c-12 -20 -14 -14 -5 12 4 9 9 14 11
11 3 -2 0 -13 -6 -23z m1849 -32 c-1 -13 -3 -13 -15 3 -19 26 -19 42 0 26 8
-7 15 -20 15 -29z m107 -3 c-3 -8 -6 -5 -6 6 -1 11 2 17 5 13 3 -3 4 -12 1
-19z m986 -8 c-3 -13 0 -20 8 -20 9 0 10 -3 3 -8 -6 -4 -13 -14 -16 -22 -3 -9
-9 1 -13 22 -7 37 0 62 15 53 4 -3 6 -14 3 -25z m-1113 3 c0 -5 -5 -15 -10
-23 -8 -12 -10 -11 -10 8 0 12 5 22 10 22 6 0 10 -3 10 -7z m1156 -7 c8 -8 14
-25 13 -38 0 -23 0 -23 -9 -2 -5 12 -13 25 -19 29 -12 6 -15 25 -5 25 3 0 12
-6 20 -14z m-2958 -21 c-3 -3 -9 2 -12 12 -6 14 -5 15 5 6 7 -7 10 -15 7 -18z
m2459 3 c-3 -8 -6 -5 -6 6 -1 11 2 17 5 13 3 -3 4 -12 1 -19z m-627 -4 c0 -8
-5 -12 -10 -9 -6 4 -8 11 -5 16 9 14 15 11 15 -7z m1170 -19 c0 -8 -4 -15 -10
-15 -5 0 -10 7 -10 15 0 8 5 15 10 15 6 0 10 -7 10 -15z m-1150 -25 c0 -5 -4
-10 -10 -10 -5 0 -10 5 -10 10 0 6 5 10 10 10 6 0 10 -4 10 -10z m17 -22 c-3
-8 -6 -5 -6 6 -1 11 2 17 5 13 3 -3 4 -12 1 -19z m1159 -15 c4 -16 11 -34 17
-40 11 -15 -1 -17 -22 -4 -8 5 -12 18 -8 30 4 18 2 21 -14 16 -18 -6 -26 5
-12 18 15 15 33 5 39 -20z m-1109 -87 c16 -18 19 -26 9 -26 -8 0 -16 7 -20 15
-8 21 -27 19 -19 -2 4 -11 2 -15 -3 -10 -10 10 -15 68 -6 82 3 5 9 0 12 -12 3
-12 15 -33 27 -47z m-771 2 c-6 -4 -6 -11 1 -20 14 -17 23 -58 13 -58 -10 0
-24 58 -21 90 1 20 -1 22 -9 10 -8 -13 -10 -13 -10 2 0 9 6 18 13 21 15 5 27
-35 13 -45z m-1691 22 c4 -7 13 -6 26 1 12 6 23 9 25 6 3 -2 10 -33 15 -68 14
-79 36 -196 45 -229 5 -19 4 -22 -5 -14 -6 6 -25 9 -41 6 -25 -3 -29 -8 -25
-26 3 -11 9 -40 14 -64 17 -83 39 -69 24 16 -6 31 -10 58 -9 59 1 1 12 0 25
-4 15 -4 20 -11 16 -21 -3 -8 -1 -18 5 -22 6 -4 12 -36 13 -71 1 -35 7 -67 12
-71 6 -5 3 -8 -7 -8 -9 0 -20 5 -23 10 -5 9 -35 -10 -35 -22 0 -7 66 -3 78 5
6 5 12 6 12 3 0 -2 3 -12 7 -22 5 -13 3 -16 -9 -12 -9 4 -21 1 -27 -5 -8 -8
-14 -8 -23 1 -18 18 -30 14 -23 -7 6 -19 -26 -51 -50 -51 -14 0 -127 181 -170
273 -35 74 -109 313 -101 326 3 4 24 8 48 10 23 1 44 4 47 7 9 9 130 4 136 -6z
m2621 -25 c-4 -14 -10 -25 -15 -25 -5 0 -4 13 2 30 13 35 22 32 13 -5z m-2986
-15 c9 -22 11 -85 7 -241 -5 -205 -16 -292 -18 -153 -2 57 -3 62 -8 29 -8 -56
-1 -186 10 -180 5 4 9 16 10 28 0 21 1 21 8 2 5 -11 4 -23 -1 -26 -6 -4 -6 -9
1 -13 15 -9 14 -123 0 -132 -9 -5 -10 3 -5 30 5 26 3 36 -6 36 -9 0 -9 3 0 12
16 16 15 25 -3 25 -12 0 -14 -11 -9 -56 4 -31 13 -66 20 -78 16 -26 19 -57 4
-48 -32 20 -86 210 -108 380 -14 99 -25 377 -16 399 4 12 19 16 54 16 43 0 49
-3 60 -30z m115 -86 c43 -179 94 -298 183 -432 23 -35 42 -69 42 -76 0 -7 -15
-20 -32 -29 -37 -19 -110 -61 -162 -94 -20 -12 -38 -19 -40 -14 -9 15 -26 291
-32 526 -7 269 -1 288 41 119z m3920 26 c19 -36 19 -41 0 -34 -8 4 -15 1 -15
-5 0 -6 -5 -11 -11 -11 -6 0 -7 6 -2 12 4 7 6 25 4 40 -3 36 5 35 24 -2z
m-1288 -36 c30 -26 52 -51 50 -58 -4 -11 -30 -17 -197 -42 -58 -8 -158 -26
-223 -39 -167 -35 -163 -36 -171 28 -13 109 -11 114 36 122 44 8 332 31 407
34 39 1 50 -5 98 -45z m133 28 c0 -10 -4 -11 -12 -5 -7 6 -20 13 -28 16 -8 3
-3 5 13 4 16 -1 27 -7 27 -15z m-1277 -16 c3 -8 3 -24 0 -37 -4 -15 -3 -20 5
-15 8 5 12 -1 12 -18 0 -13 4 -36 10 -50 7 -18 6 -26 -1 -26 -8 0 -7 -5 1 -15
10 -13 9 -15 -9 -15 -11 0 -21 -4 -21 -10 0 -18 -18 -11 -23 9 -3 13 0 18 8
15 7 -3 16 -1 20 5 3 7 -2 11 -14 11 -16 0 -21 6 -21 26 0 14 4 23 10 19 6 -3
10 -13 10 -21 0 -8 4 -14 8 -14 8 0 4 34 -15 123 -5 28 10 39 20 13z m1313
-43 c-7 -7 -26 7 -26 19 0 6 6 6 15 -2 9 -7 13 -15 11 -17z m1141 4 c-3 -7 1
-24 8 -37 12 -22 13 -22 23 -4 10 17 11 16 12 -9 0 -29 20 -57 39 -57 6 0 11
-4 11 -10 0 -18 -35 -5 -64 24 -28 29 -50 81 -40 97 8 14 17 10 11 -4z m1551
-183 c-3 -57 -9 -79 -31 -112 -35 -54 -35 -65 3 -57 28 6 30 5 26 -17 -3 -12
-10 -52 -17 -87 -23 -135 -79 -246 -148 -296 -23 -16 -48 -35 -55 -42 -7 -6
-31 -19 -52 -28 -45 -19 -83 -14 -158 19 -28 13 -76 33 -106 44 -133 49 -249
113 -355 195 -110 85 -415 375 -415 394 0 21 125 38 272 38 80 0 149 -3 153
-7 4 -4 -2 -17 -14 -29 -24 -26 -28 -100 -8 -135 18 -32 78 -96 123 -131 39
-31 142 -61 164 -48 17 10 11 35 -8 35 -34 0 -128 55 -184 109 -65 60 -62 138
6 166 30 13 48 12 172 -11 128 -23 147 -24 238 -14 149 17 239 53 317 128 l64
61 8 -52 c5 -29 7 -84 5 -123z m-4058 98 c0 -15 -2 -15 -10 -2 -13 20 -13 33
0 25 6 -3 10 -14 10 -23z m-505 -2 c3 -5 1 -10 -4 -10 -6 0 -11 5 -11 10 0 6
2 10 4 10 3 0 8 -4 11 -10z m3005 0 c0 -5 -2 -10 -4 -10 -2 0 -12 -3 -22 -7
-16 -6 -17 -5 -4 10 17 19 30 22 30 7z m-3170 -35 c0 -8 -4 -15 -10 -15 -5 0
-10 7 -10 15 0 8 5 15 10 15 6 0 10 -7 10 -15z m195 -43 c-3 -3 0 -11 7 -19 6
-7 8 -16 5 -19 -3 -4 0 -13 8 -21 18 -18 20 -36 3 -30 -7 2 -25 0 -40 -4 -28
-7 -28 -7 -28 37 0 24 5 44 10 44 6 0 10 10 10 21 0 18 2 19 15 9 9 -7 13 -15
10 -18z m583 -16 c3 -14 0 -17 -12 -13 -10 4 -16 1 -16 -8 0 -8 7 -15 16 -15
11 0 13 -6 9 -19 -3 -11 0 -23 7 -28 18 -11 41 -63 28 -63 -6 0 -10 4 -10 9 0
5 -13 31 -29 58 -16 26 -32 61 -35 76 -6 25 -4 28 16 25 13 -2 24 -11 26 -22z
m2506 -1 c-4 -8 -10 -12 -15 -9 -11 6 -2 24 11 24 5 0 7 -7 4 -15z m-3230 -9
c-3 -8 2 -26 11 -40 9 -14 15 -31 13 -38 -3 -7 -13 2 -23 22 -10 19 -22 38
-28 41 -13 9 0 29 18 29 8 0 12 -6 9 -14z m46 -22 c0 -8 -6 -11 -15 -8 -8 4
-15 15 -15 26 0 17 3 18 15 8 8 -7 15 -19 15 -26z m3187 -16 c-3 -8 -6 -5 -6
6 -1 11 2 17 5 13 3 -3 4 -12 1 -19z m-3169 -49 l-3 -24 -13 23 c-7 12 -10 27
-6 33 10 17 26 -6 22 -32z m2080 34 c64 -5 85 -10 89 -22 3 -9 9 -25 14 -36 4
-11 15 -63 24 -116 13 -79 14 -115 5 -200 -13 -133 -19 -166 -34 -177 -6 -5
-51 -12 -101 -16 -49 -4 -145 -14 -212 -22 -67 -8 -215 -15 -330 -17 l-208 -2
-7 61 c-3 34 -11 79 -17 101 -10 35 -31 272 -31 346 0 31 20 42 105 58 214 40
509 58 703 42z m-3664 -29 c8 -22 6 -95 -4 -119 -5 -13 -7 1 -4 37 2 32 0 59
-6 63 -12 8 -13 35 -1 35 5 0 12 -7 15 -16z m4769 -61 c5 -70 3 -94 -7 -82 -7
9 -14 159 -7 159 5 0 11 -35 14 -77z m-3098 12 c-4 -59 -10 -75 -28 -75 -8 0
-9 3 -1 8 6 4 13 14 16 23 4 11 0 15 -16 15 -16 -1 -20 4 -18 19 2 11 4 27 5
36 1 10 8 14 19 11 10 -2 18 1 18 7 0 6 2 11 4 11 2 0 3 -25 1 -55z m29 40 c3
-8 1 -15 -4 -15 -6 0 -10 7 -10 15 0 8 2 15 4 15 2 0 6 -7 10 -15z m3173 -17
c-3 -8 -6 -5 -6 6 -1 11 2 17 5 13 3 -3 4 -12 1 -19z m-3287 -18 c0 -5 -2 -10
-4 -10 -3 0 -8 5 -11 10 -3 6 -1 10 4 10 6 0 11 -4 11 -10z m110 -11 c0 -5 -4
-9 -10 -9 -5 0 -10 7 -10 16 0 8 5 12 10 9 6 -3 10 -10 10 -16z m26 -4 c-3 -8
4 -25 15 -39 11 -13 18 -28 17 -33 -1 -4 6 -20 16 -35 10 -16 15 -35 12 -44
-4 -12 -2 -15 9 -10 8 3 15 1 15 -4 0 -15 -53 -8 -72 8 -10 8 -18 24 -18 35 0
16 -3 17 -15 7 -12 -10 -15 -10 -15 3 0 8 -6 18 -12 21 -7 3 -1 4 15 2 34 -4
45 11 22 28 -14 10 -16 21 -11 50 4 21 11 34 17 30 6 -3 8 -12 5 -19z m3207
-10 c13 -19 27 -32 31 -28 4 4 4 -1 0 -10 -6 -16 -9 -16 -35 9 -21 20 -26 30
-17 36 15 9 6 10 -16 2 -13 -5 -11 -12 12 -42 44 -59 49 -64 56 -46 3 8 10 12
16 9 6 -4 7 1 3 12 -6 16 -5 16 10 4 23 -19 21 -34 -8 -59 -33 -29 -41 -64
-20 -96 16 -24 18 -24 34 -8 9 9 22 29 29 45 10 23 16 27 39 21 22 -4 25 -3
13 5 -19 14 -5 14 21 1 10 -6 19 -16 19 -23 0 -9 -3 -8 -9 1 -12 20 -69 -39
-64 -67 1 -12 -2 -21 -7 -21 -6 0 -10 -7 -10 -16 0 -9 17 3 41 30 23 25 46 43
51 40 5 -3 4 -12 -2 -19 -10 -12 -5 -13 27 -10 21 2 29 2 18 -1 -32 -9 -45
-28 -14 -20 20 4 33 0 53 -21 14 -14 23 -29 20 -32 -4 -3 -9 0 -11 7 -5 14
-23 16 -23 3 0 -5 9 -13 20 -16 11 -4 17 -11 14 -17 -4 -6 1 -8 15 -3 14 4 32
0 48 -10 20 -13 27 -14 33 -5 5 7 15 10 25 7 9 -4 13 -12 9 -19 -5 -8 -2 -9 9
-5 9 3 19 2 22 -3 3 -5 -4 -11 -15 -15 -11 -4 -18 -11 -14 -16 3 -5 0 -8 -7
-7 -6 2 -14 -3 -17 -11 -3 -8 0 -11 7 -7 6 4 11 2 11 -3 0 -6 -5 -11 -12 -11
-6 0 -4 -7 5 -18 19 -21 23 -37 7 -27 -6 4 -5 -4 1 -19 15 -31 24 -26 33 15 3
18 8 30 11 28 7 -8 -13 -82 -25 -89 -7 -4 -12 -18 -12 -31 0 -13 1 -122 3
-241 2 -179 5 -214 16 -200 11 15 12 15 13 -6 0 -28 34 -27 36 1 1 12 1 13 -3
2 -9 -30 -23 -14 -24 28 -1 36 -2 38 -9 17 -6 -19 -8 -11 -9 33 -1 32 3 57 9
57 6 0 10 -8 10 -18 0 -25 11 -34 25 -22 8 7 10 34 7 85 -4 64 -2 75 11 75 17
0 19 -8 20 -86 0 -66 -10 -104 -28 -104 -8 0 -15 -4 -15 -10 0 -13 34 -30 46
-22 15 11 35 62 24 62 -6 0 -10 16 -10 36 0 47 16 35 24 -18 11 -68 16 -145 7
-124 -7 18 -8 18 -14 -5 -4 -13 -2 -25 3 -27 19 -7 10 -24 -10 -19 -23 6 -27
-11 -5 -19 8 -4 15 -12 15 -20 0 -30 20 -12 21 19 1 23 4 17 11 -23 5 -30 7
-66 5 -80 -3 -17 -4 -14 -6 12 -1 47 -14 55 -28 17 -6 -16 -7 -27 -2 -23 12 7
11 -3 -2 -28 -9 -17 -13 -18 -20 -7 -14 22 -11 51 8 71 16 18 16 19 -5 25 -12
3 -22 11 -22 19 0 7 -13 20 -30 29 -33 17 -34 17 -31 -50 l1 -40 -17 35 -17
35 -4 -28 c-2 -17 4 -37 17 -53 16 -20 21 -41 21 -85 0 -32 -4 -61 -10 -64
-11 -7 -13 4 -10 48 1 15 -5 39 -14 52 -9 13 -16 32 -16 41 0 11 -6 15 -20 11
-23 -6 -41 19 -39 55 l2 23 4 -23 c6 -28 23 -19 23 13 0 18 -4 23 -15 19 -12
-5 -15 6 -13 67 1 41 5 76 9 79 10 7 -29 332 -41 344 -13 13 -11 22 -16 -119
-6 -214 -37 -482 -65 -550 -10 -28 -12 -28 -19 -10 -5 11 -9 27 -9 35 -1 13 0
13 9 0 8 -11 10 -4 8 27 -1 23 -6 39 -11 36 -5 -3 -8 18 -6 48 1 30 1 68 0 84
-3 27 -4 25 -16 -19 -17 -60 -27 -254 -15 -293 l8 -28 7 32 c4 18 11 30 15 28
11 -7 -5 -63 -23 -84 -8 -9 -17 -29 -21 -45 -6 -24 -9 -27 -17 -15 -8 10 -9 8
-4 -8 4 -13 2 -23 -4 -23 -5 0 -8 -16 -5 -37 2 -21 1 -32 -2 -24 -4 7 -14 21
-23 30 -16 16 -18 15 -28 -16 -9 -30 0 -49 10 -20 2 6 8 9 12 5 4 -4 2 -14 -4
-22 -13 -16 -6 -82 11 -103 11 -14 1 -36 -13 -28 -5 3 -6 -1 -3 -9 3 -9 2 -16
-3 -16 -6 0 -10 -12 -11 -27 -1 -41 -13 -96 -24 -110 -5 -7 -7 -16 -4 -21 3
-5 -1 -9 -9 -9 -8 0 -11 5 -8 10 3 6 1 7 -5 3 -6 -3 -9 -23 -6 -44 3 -30 2
-32 -5 -12 -7 20 -8 14 -8 -28 0 -30 -4 -57 -10 -60 -5 -4 -13 -16 -18 -27 -7
-19 -9 -18 -18 8 -6 15 -15 27 -20 27 -5 0 -6 -8 -1 -17 13 -30 8 -68 -15
-116 -13 -26 -19 -52 -15 -58 4 -8 3 -9 -4 -5 -7 4 -12 1 -12 -8 0 -9 -4 -16
-10 -16 -13 0 -13 13 -1 26 5 5 11 23 13 39 2 17 8 29 15 28 17 -3 28 76 13
90 -10 10 -11 5 -7 -20 5 -28 2 -36 -18 -49 -14 -9 -25 -25 -25 -35 0 -10 -4
-21 -10 -24 -16 -10 -8 61 20 185 8 35 8 35 9 5 0 -17 -3 -44 -8 -60 -4 -17
-5 -39 -1 -50 7 -18 8 -19 15 -2 4 9 5 26 2 37 -3 10 1 21 8 24 25 9 25 106
-1 99 -5 -2 -9 2 -8 7 6 58 5 57 14 30 8 -24 8 -24 9 6 1 37 10 47 27 33 7 -6
23 -9 36 -7 19 2 23 9 22 35 -2 35 12 35 26 -1 8 -19 9 -19 9 7 1 15 -3 27 -8
27 -6 0 -6 11 0 28 5 15 8 39 6 52 -4 23 -9 25 -58 26 l-54 1 2 44 c1 24 5 55
8 69 6 21 8 22 16 8 6 -10 5 -26 -1 -42 -7 -21 -6 -26 5 -26 9 0 15 10 15 24
0 13 5 26 11 28 7 2 11 58 13 160 1 86 -1 154 -4 150 -3 -4 -10 -8 -16 -9 -8
-1 -12 38 -13 122 -1 76 2 125 8 125 5 0 12 -8 14 -17 3 -10 5 0 6 22 0 29 -2
36 -9 25 -11 -17 -13 -10 -10 45 1 22 6 42 11 43 5 2 9 42 9 89 0 73 2 84 14
73 8 -6 16 -32 18 -58 2 -25 9 -47 16 -50 6 -2 12 3 12 12 0 9 -4 16 -9 16 -5
0 -7 18 -4 40 4 28 2 40 -7 40 -9 0 -10 19 -5 80 5 56 4 80 -4 80 -6 0 -11 7
-11 15 0 8 -5 15 -10 15 -7 0 -9 -15 -6 -37 4 -30 4 -33 -3 -13 -7 20 -9 15
-10 -30 0 -39 2 -51 9 -40 8 12 10 10 10 -8 0 -13 -4 -20 -10 -17 -10 6 -16
-65 -12 -128 1 -16 -2 -36 -8 -45 -6 -12 -9 31 -10 136 0 95 4 152 10 152 6 0
10 18 10 40 0 43 -16 55 -22 18 -2 -13 -5 19 -6 69 -1 51 -5 115 -7 143 -3 30
-1 50 5 50 5 0 10 -18 10 -39 0 -22 4 -42 9 -45 9 -6 7 31 -5 83 -9 42 7 161
22 161 8 0 14 11 14 26 0 22 -2 24 -15 14 -20 -16 -38 -2 -32 26 2 14 -3 31
-14 43 -22 23 -23 34 -9 62 15 27 26 24 53 -16z m-4337 -447 l19 -48 -24 -16
c-13 -10 -31 -25 -40 -36 -15 -18 -41 -25 -41 -10 0 4 -4 45 -10 92 -12 110
-18 174 -25 285 l-5 90 54 -155 c29 -85 62 -176 72 -202z m538 344 c-19 -13
-25 -42 -9 -42 21 0 14 -23 -9 -33 -20 -8 -49 9 -40 24 3 5 0 9 -6 9 -7 0 -9
-7 -6 -16 3 -9 6 -20 6 -25 0 -5 7 -9 15 -9 8 0 15 -5 15 -11 0 -6 -3 -9 -7
-7 -47 23 -61 32 -72 50 -10 17 -10 22 0 28 7 5 18 6 25 3 8 -3 26 4 41 16 16
11 35 20 43 21 9 0 11 -3 4 -8z m39 -79 c5 -31 3 -33 -23 -33 -16 0 -32 5 -36
11 -4 7 2 9 17 7 22 -3 24 0 21 37 -3 47 13 30 21 -22z m-164 -32 c23 -27 41
-51 41 -54 0 -12 -328 -158 -334 -149 -2 4 -7 28 -11 54 -7 43 -5 47 21 64 16
10 39 26 51 37 23 21 160 94 180 96 6 0 30 -21 52 -48z m-992 -28 c-2 -16 -4
-5 -4 22 0 28 2 40 4 28 2 -13 2 -35 0 -50z m5148 37 c3 -5 1 -10 -4 -10 -6 0
-11 5 -11 10 0 6 2 10 4 10 3 0 8 -4 11 -10z m-3325 -17 c0 -11 -5 -11 -20 -3
-11 6 -20 13 -20 15 0 2 9 3 20 2 11 -1 20 -7 20 -14z m-703 -9 c-3 -3 -12 -4
-19 -1 -8 3 -5 6 6 6 11 1 17 -2 13 -5z m-729 -94 l0 -45 -9 40 c-4 22 -8 54
-7 70 0 29 0 29 8 5 4 -14 8 -45 8 -70z m4479 68 c-3 -8 -6 -5 -6 6 -1 11 2
17 5 13 3 -3 4 -12 1 -19z m345 2 c22 -20 32 -60 16 -60 -4 0 -8 9 -8 20 0 11
-9 25 -20 32 -11 7 -20 16 -20 20 0 13 10 9 32 -12z m-3742 -110 c0 -10 4 -21
9 -24 5 -3 12 -27 16 -53 4 -26 15 -67 25 -92 9 -25 25 -91 34 -146 10 -55 21
-110 26 -122 8 -20 3 -27 -43 -57 -29 -19 -90 -56 -137 -83 -47 -27 -121 -70
-165 -96 -44 -26 -127 -63 -185 -83 l-104 -36 -18 24 c-10 13 -31 48 -47 78
-15 30 -43 81 -60 114 -17 32 -31 66 -31 77 0 10 -11 51 -24 91 -30 90 -42
158 -27 158 5 0 47 18 93 40 172 82 381 162 593 228 36 11 45 7 45 -18z
m-1470 -15 c0 -8 -7 -15 -16 -15 -14 0 -14 3 -4 15 7 8 14 15 16 15 2 0 4 -7
4 -15z m379 -30 c0 -5 -4 -3 -9 5 -5 8 -9 22 -9 30 0 16 17 -16 18 -35z m241
35 c0 -5 -5 -10 -11 -10 -5 0 -7 5 -4 10 3 6 8 10 11 10 2 0 4 -4 4 -10z
m4750 -22 c0 -7 -3 -24 -7 -36 -4 -18 -8 -20 -14 -10 -12 19 -11 30 3 22 8 -5
9 0 6 14 -4 12 -2 22 3 22 5 0 9 -6 9 -12z m29 -131 c0 -27 -2 -29 -9 -12 -12
28 -12 57 0 50 6 -3 10 -21 9 -38z m172 28 c5 4 6 -1 3 -9 -7 -18 7 -21 23 -5
14 14 54 -27 46 -47 -3 -9 0 -12 9 -9 9 4 19 -7 30 -30 8 -19 12 -35 8 -35 -4
0 -12 11 -18 25 -7 16 -17 23 -27 19 -8 -3 -12 -11 -8 -18 3 -6 2 -7 -3 -3
-11 11 -11 50 0 58 5 4 -2 12 -14 19 -20 11 -22 10 -17 -4 4 -9 2 -16 -3 -16
-12 0 -50 50 -49 64 0 7 3 6 6 -2 2 -6 9 -10 14 -7z m-5451 -27 c0 -5 -4 -8
-10 -8 -5 0 -10 10 -10 23 0 18 2 19 10 7 5 -8 10 -18 10 -22z m5260 -108 c0
-39 -3 -51 -10 -40 -5 8 -10 40 -10 70 0 39 3 51 10 40 5 -8 10 -40 10 -70z
m-5243 48 c-3 -8 -6 -5 -6 6 -1 11 2 17 5 13 3 -3 4 -12 1 -19z m5299 -65
c-12 -12 -36 22 -36 51 l0 31 21 -39 c11 -21 18 -41 15 -43z m-5289 25 c-3 -8
-6 -5 -6 6 -1 11 2 17 5 13 3 -3 4 -12 1 -19z m-28 -100 l-2 -93 -9 67 c-9 61
-6 118 7 118 3 0 4 -42 4 -92z m5588 25 c-3 -10 -5 -4 -5 12 0 17 2 24 5 18 2
-7 2 -21 0 -30z m-273 -5 c7 -5 7 -8 -2 -8 -7 0 -10 -5 -7 -10 4 -6 10 -8 15
-5 10 6 34 -89 27 -107 -3 -7 -6 -4 -6 8 -2 38 -23 84 -38 84 -10 0 -14 6 -10
20 3 11 1 18 -4 14 -5 -3 -10 -42 -11 -87 l-2 -82 -3 76 c-4 73 13 152 25 119
3 -8 10 -18 16 -22z m-5255 -18 c-10 -7 -9 -14 5 -34 21 -33 28 -33 21 2 -4
19 -3 21 3 9 8 -20 7 -95 -3 -137 -4 -20 -4 -21 3 -5 9 19 9 19 17 -4 4 -13 2
-28 -4 -34 -6 -6 -11 -33 -11 -59 0 -41 -3 -48 -20 -48 -17 0 -20 -6 -19 -42
l1 -43 9 32 c13 43 29 51 29 14 0 -33 -19 -81 -32 -81 -4 0 -8 -9 -8 -20 0
-11 5 -20 11 -20 8 0 10 -22 6 -72 -4 -40 -2 -93 3 -118 7 -36 8 -29 4 35 -4
51 -2 75 4 67 6 -9 7 4 4 37 l-5 51 46 0 c40 0 46 -3 49 -22 2 -13 2 21 0 76
-4 85 -8 101 -28 123 -21 23 -24 51 -5 38 19 -11 7 52 -15 81 -30 38 -30 41
-1 39 13 -1 23 -9 25 -21 2 -10 8 -23 13 -29 5 -5 9 -17 9 -26 0 -9 10 -23 22
-31 22 -15 22 -15 4 -44 -10 -16 -13 -23 -5 -16 20 19 25 15 44 -33 13 -29 22
-41 27 -32 4 7 8 -12 8 -41 0 -34 -5 -59 -15 -68 -10 -11 -15 -37 -15 -86 0
-51 -3 -69 -12 -65 -10 3 -12 36 -9 135 3 115 1 132 -12 132 -20 0 -33 -20
-19 -29 7 -4 11 -64 11 -160 0 -86 4 -157 10 -160 5 -3 8 -58 8 -123 -2 -94
-5 -118 -16 -118 -12 0 -13 21 -8 120 5 77 3 120 -3 120 -6 0 -10 -61 -10
-160 0 -100 4 -160 10 -160 6 0 10 -15 10 -32 l-1 -33 -14 25 -14 25 -1 -32
c0 -29 3 -33 25 -33 16 0 25 -6 25 -15 0 -8 5 -15 11 -15 6 0 8 -9 4 -21 -5
-15 -4 -19 4 -14 14 8 13 -136 -1 -146 -5 -3 -1 -19 7 -37 12 -22 14 -45 9
-82 -9 -69 -18 -55 -16 25 1 36 -2 65 -7 65 -15 0 -27 -376 -15 -445 3 -22 2
-26 -5 -15 -18 29 -31 162 -19 207 10 40 1 155 -9 125 -7 -19 -43 26 -43 53 0
13 7 28 15 35 17 14 21 35 5 25 -5 -3 -18 -1 -27 4 -10 6 -13 11 -8 11 12 0 7
80 -5 80 -13 0 -32 58 -26 78 4 11 18 23 31 26 34 9 31 22 -5 35 -17 5 -30 14
-29 18 4 25 -2 53 -11 48 -6 -3 -10 4 -10 17 0 13 3 18 8 12 4 -7 8 26 9 72 1
65 -1 84 -12 84 -8 0 -11 7 -8 21 4 16 8 17 14 7 6 -9 9 -8 9 7 -1 11 -7 29
-15 39 -8 11 -15 28 -15 38 0 10 -5 18 -10 18 -6 0 -9 13 -8 28 1 15 -1 33 -5
39 -4 6 -3 14 3 18 5 3 10 13 10 21 0 8 -4 13 -9 10 -5 -4 -5 10 0 32 11 50
11 132 0 132 -6 0 -7 -15 -5 -32 3 -18 1 -44 -5 -58 -9 -20 -10 -10 -7 50 3
41 7 84 9 95 2 11 2 14 0 8 -10 -29 -20 -9 -22 41 -1 39 3 55 14 60 9 3 15 19
15 41 0 19 5 35 10 35 15 0 12 20 -11 70 -18 39 -22 42 -29 25 -5 -11 -7 -51
-5 -90 3 -69 3 -69 -5 -15 -12 82 -12 142 0 135 9 -6 15 22 10 54 -3 27 11 61
25 61 8 0 15 8 15 18 1 15 2 15 11 -2 9 -14 8 -20 -2 -26z m5509 15 c-3 -3 -9
2 -12 12 -6 14 -5 15 5 6 7 -7 10 -15 7 -18z m-321 -127 c-2 -24 -4 -5 -4 42
0 47 2 66 4 43 2 -24 2 -62 0 -85z m378 92 c9 -17 11 -30 5 -30 -5 0 -10 5
-10 11 0 5 -4 8 -9 5 -5 -3 -8 5 -7 19 0 14 2 25 3 25 1 0 9 -13 18 -30z
m-5283 -28 c-7 -2 -10 -14 -7 -30 3 -15 2 -20 -1 -12 -4 8 -11 18 -16 21 -5 3
-6 18 -3 32 7 24 8 25 23 10 12 -12 13 -18 4 -21z m4315 -9 c-3 -10 -5 -4 -5
12 0 17 2 24 5 18 2 -7 2 -21 0 -30z m1013 -57 c0 -6 -7 -1 -15 10 -8 10 -14
26 -14 34 0 16 28 -28 29 -44z m-5343 -2 c7 -21 18 -49 25 -62 9 -17 9 -25 0
-34 -9 -9 -12 -7 -12 8 -1 22 -22 54 -38 54 -10 0 -22 67 -13 76 11 11 25 -5
38 -42z m4351 -70 c0 -49 -3 -72 -9 -63 -13 21 -8 139 7 139 1 0 2 -34 2 -76z
m1017 46 c3 -5 1 -10 -4 -10 -6 0 -11 5 -11 10 0 6 2 10 4 10 3 0 8 -4 11 -10z
m-5315 -20 c0 -5 -4 -10 -10 -10 -5 0 -10 5 -10 10 0 6 5 10 10 10 6 0 10 -4
10 -10z m-69 -16 c10 -9 15 -22 12 -30 -4 -11 -10 -8 -24 10 -29 37 -22 51 12
20z m75 -51 c-11 -11 -17 4 -9 23 7 18 8 18 11 1 2 -10 1 -21 -2 -24z m-96 11
c0 -8 -4 -12 -10 -9 -5 3 -10 10 -10 16 0 5 5 9 10 9 6 0 10 -7 10 -16z m4190
-21 c0 -26 -3 -34 -11 -26 -9 9 -3 63 7 63 2 0 4 -17 4 -37z m-4139 -17 c7
-15 8 -36 4 -53 l-8 -28 -10 38 c-6 20 -16 37 -24 37 -17 0 -17 17 0 23 22 10
27 7 38 -17z m72 -50 c4 4 7 -4 6 -17 0 -13 -3 -18 -6 -11 -2 6 -9 10 -14 6
-5 -3 -9 0 -9 5 0 6 -5 11 -12 11 -9 0 -9 -3 0 -12 17 -17 15 -35 -5 -42 -26
-10 -33 15 -12 45 10 15 19 33 19 41 1 7 6 3 13 -10 7 -12 16 -19 20 -16z
m-279 9 c3 -8 1 -15 -4 -15 -6 0 -10 7 -10 15 0 8 2 15 4 15 2 0 6 -7 10 -15z
m276 -75 c-7 -4 -10 -13 -6 -19 5 -7 1 -9 -8 -5 -9 3 -16 8 -16 10 0 11 26 31
34 27 4 -3 3 -9 -4 -13z m4190 -6 c0 -21 -27 -17 -33 5 -3 14 0 17 14 14 11
-3 19 -12 19 -19z m59 -109 c2 49 5 61 10 41 3 -15 4 -60 2 -100 -4 -58 -6
-66 -12 -41 -6 21 -7 13 -4 -30 l3 -60 -13 45 c-12 43 -13 41 -9 -50 3 -52 7
-103 10 -112 3 -10 1 -18 -5 -18 -6 0 -11 -8 -11 -17 0 -13 -3 -14 -12 -5 -9
9 -9 17 1 36 11 19 11 44 1 130 -13 103 -9 136 11 106 6 -11 9 -4 7 25 -1 22
0 72 2 110 l4 70 6 -100 c6 -98 6 -99 9 -30z m339 -2 c-2 -38 0 -64 7 -66 6
-2 4 -16 -6 -37 l-15 -33 1 59 c5 137 8 178 12 160 3 -11 3 -48 1 -83z m-4564
46 c7 -16 17 -24 26 -21 9 2 7 -2 -5 -11 -19 -15 -21 -14 -30 8 -6 14 -20 31
-30 39 -19 14 -19 15 4 13 15 -1 28 -11 35 -28z m23 -1 c-3 -8 -6 -5 -6 6 -1
11 2 17 5 13 3 -3 4 -12 1 -19z m4699 -28 c8 0 14 -8 14 -19 0 -10 7 -24 15
-31 8 -7 15 -16 15 -21 0 -5 -7 -9 -15 -9 -8 0 -15 7 -15 15 0 17 -16 20 -25
6 -3 -6 3 -15 14 -20 11 -6 23 -20 26 -31 4 -11 11 -18 16 -15 5 4 10 -19 11
-52 1 -42 2 -48 5 -20 3 29 9 37 24 37 10 0 19 -4 19 -10 0 -5 -6 -9 -12 -7
-13 2 -19 -57 -18 -172 0 -70 -51 -93 -110 -49 -29 21 -40 48 -20 48 5 0 14
10 21 21 8 15 8 19 0 15 -7 -4 -11 1 -11 13 0 12 4 21 9 21 6 0 7 16 4 35 -3
20 -1 35 4 35 15 0 23 61 13 101 l-8 34 1 -42 c0 -23 -6 -49 -13 -58 -7 -9
-21 -48 -31 -88 -17 -71 -18 -71 -12 -17 3 30 14 80 25 110 10 30 21 87 25
125 3 39 8 64 10 58 3 -7 11 -13 19 -13z m-4676 -38 c0 -15 4 -32 10 -38 6 -6
5 -15 -1 -24 -9 -13 -10 -13 -6 0 2 8 -7 25 -20 38 -13 12 -19 22 -14 22 6 0
11 7 11 15 0 8 5 15 10 15 6 0 10 -13 10 -28z m4131 -30 c-6 -11 -11 -67 -11
-123 0 -56 -2 -100 -4 -98 -9 10 -14 209 -6 209 5 0 7 15 3 33 -5 30 -4 31 12
16 13 -13 15 -21 6 -37z m-4354 -9 c-3 -10 -5 -4 -5 12 0 17 2 24 5 18 2 -7 2
-21 0 -30z m5131 -26 c1 17 6 35 12 38 6 4 9 -16 7 -49 -1 -31 -5 -56 -9 -56
-5 0 -8 -7 -8 -15 0 -8 7 -15 15 -15 8 0 15 -7 15 -15 0 -8 -3 -14 -7 -12 -14
4 -16 -12 -9 -83 4 -40 11 -68 17 -65 11 8 12 -15 0 -34 -22 -35 -52 100 -52
239 0 60 -4 88 -11 84 -5 -4 -4 4 3 17 13 23 14 23 20 -21 5 -36 6 -39 7 -13z
m-5131 -74 c-3 -10 -5 -2 -5 17 0 19 2 27 5 18 2 -10 2 -26 0 -35z m4543 27
c0 -3 -4 -10 -10 -16 -5 -5 -10 -26 -12 -46 -3 -55 -18 -35 -16 22 2 40 6 48
20 47 10 -1 18 -4 18 -7z m-350 -103 c0 -18 4 -39 10 -47 6 -9 5 -17 -3 -22
-8 -5 -11 -40 -11 -107 1 -94 -1 -99 -18 -90 -20 11 -23 25 -8 34 6 3 10 14 9
23 0 14 -2 13 -9 -3 -8 -18 -9 -17 -9 7 -1 14 -6 28 -12 30 -15 5 -15 101 -1
106 8 2 7 14 -3 39 -19 44 -19 47 1 39 8 -3 12 -2 9 3 -3 5 -1 12 5 16 6 4 10
-20 11 -67 1 -49 3 -65 8 -48 5 14 6 49 3 79 -4 39 -2 52 6 47 7 -4 12 -22 12
-39z m-3693 17 c-3 -3 -12 -4 -19 -1 -8 3 -5 6 6 6 11 1 17 -2 13 -5z m-510
-186 c-2 -35 -3 -7 -3 62 0 69 1 97 3 63 2 -35 2 -91 0 -125z m433 172 c0 -5
-2 -10 -4 -10 -3 0 -8 5 -11 10 -3 6 -1 10 4 10 6 0 11 -4 11 -10z m194 -10
c32 0 56 -10 56 -22 0 -6 -18 -8 -42 -4 -24 3 -51 5 -60 5 -11 1 -18 9 -18 21
0 17 3 19 19 10 11 -5 31 -10 45 -10z m4106 -39 c-11 -48 -30 -70 -30 -36 0 8
5 15 10 15 6 0 9 3 9 8 -3 13 14 73 18 68 3 -3 0 -28 -7 -55z m437 22 c-3 -10
-5 -4 -5 12 0 17 2 24 5 18 2 -7 2 -21 0 -30z m-4717 -8 c0 -8 -4 -15 -10 -15
-5 0 -10 7 -10 15 0 8 5 15 10 15 6 0 10 -7 10 -15z m25 -32 c-4 -19 -9 -23
-14 -14 -5 7 -3 23 3 37 13 28 21 14 11 -23z m325 37 c0 -5 -9 -10 -21 -10
-11 0 -17 5 -14 10 3 6 13 10 21 10 8 0 14 -4 14 -10z m3736 -57 c-7 -79 -16
-78 -16 1 0 43 4 65 10 61 6 -4 8 -30 6 -62z m-5291 -82 c-1 -70 -6 -115 -13
-124 -10 -12 -10 -16 -1 -19 8 -3 10 -11 5 -24 -8 -19 -8 -19 -16 1 -6 15 -9
6 -9 -30 -1 -36 -4 -46 -11 -35 -7 10 -10 -11 -10 -67 0 -64 -3 -83 -14 -83
-9 0 -15 14 -18 40 -2 22 0 40 5 40 5 0 7 15 4 33 -2 18 2 44 10 60 9 19 11
33 5 40 -6 7 -7 29 -2 52 l8 40 1 -45 c1 -29 4 -40 10 -31 5 7 6 22 4 32 -4
13 0 19 11 19 14 0 16 15 16 111 0 60 4 108 8 105 5 -3 8 -55 7 -115z m1100
101 c-3 -3 -11 0 -18 7 -9 10 -8 11 6 5 10 -3 15 -9 12 -12z m-1131 -97 c-5
-63 -10 -83 -16 -70 -6 9 -7 19 -4 22 3 4 1 12 -5 19 -8 10 -7 18 5 29 9 10
16 33 16 57 0 23 3 39 6 36 3 -3 2 -45 -2 -93z m596 75 c0 -11 -2 -20 -4 -20
-2 0 -6 9 -9 20 -3 11 -1 20 4 20 5 0 9 -9 9 -20z m4541 -72 c-8 -29 -9 -25
-9 32 0 57 1 61 9 33 6 -21 6 -45 0 -65z m156 55 c-3 -10 -5 -4 -5 12 0 17 2
24 5 18 2 -7 2 -21 0 -30z m-210 -327 c-4 -177 -11 -368 -16 -426 -5 -58 -13
-153 -16 -211 -6 -98 -9 -107 -29 -117 -30 -13 -176 -35 -184 -27 -3 3 -1 25
6 48 71 254 97 353 122 472 17 77 37 169 44 205 8 36 22 133 31 215 9 83 19
161 22 175 4 23 5 23 15 6 7 -13 9 -122 5 -340z m-3903 313 c19 -32 11 -32
-26 0 -21 18 -23 31 -5 31 7 0 21 -14 31 -31z m3823 -41 c-2 -13 -4 -3 -4 22
0 25 2 35 4 23 2 -13 2 -33 0 -45z m596 14 c-5 -4 -10 -23 -9 -42 0 -19 -2
-48 -5 -65 -3 -16 -4 -24 -2 -17 3 7 9 10 14 7 5 -4 9 -1 9 5 0 6 11 5 30 -5
32 -17 40 -50 18 -84 -9 -15 -15 -16 -40 -7 -16 6 -28 18 -28 28 0 9 -4 19 -9
23 -18 11 -27 -21 -35 -115 -1 -25 -1 -28 1 -7 2 20 8 37 14 37 5 0 10 19 10
43 l2 42 6 -40 c4 -28 2 -43 -7 -51 -11 -8 -12 -20 -4 -55 5 -24 10 -34 11
-23 1 19 7 21 52 20 47 -1 50 0 46 22 -2 12 0 25 5 28 4 3 5 11 1 17 -11 18
-10 128 2 124 6 -2 10 -26 10 -53 0 -27 4 -55 9 -63 5 -8 4 -16 -4 -21 -6 -4
-11 -20 -9 -36 1 -16 1 -40 1 -53 -2 -20 -4 -22 -18 -10 -19 16 -34 -2 -34
-43 0 -40 -18 -44 -35 -6 l-16 33 5 -30 c3 -16 2 -46 -3 -65 -9 -35 -9 -35
-10 13 -1 27 -5 46 -9 43 -7 -4 -8 -57 -2 -141 1 -19 2 -18 10 3 14 33 18 27
18 -24 0 -36 -2 -43 -13 -34 -10 8 -14 -1 -20 -47 -3 -32 -8 -67 -9 -78 -2
-11 -1 -15 1 -8 2 6 11 14 19 17 11 4 12 2 4 -14 -5 -10 -11 -36 -11 -57 -1
-25 -3 -30 -6 -15 -3 14 -10 22 -17 19 -10 -4 -15 10 -20 46 -9 78 -7 190 4
207 7 10 10 -11 10 -69 0 -46 2 -82 5 -79 12 11 6 181 -6 188 -9 6 -10 53 -6
186 3 99 6 180 6 181 1 1 8 0 16 -3 17 -7 21 16 6 32 -6 5 -4 24 6 49 8 22 17
53 20 70 6 30 6 30 16 7 8 -16 8 -26 0 -30z m-4523 18 c0 -11 -7 -20 -15 -20
-13 0 -13 3 -3 20 7 11 14 20 15 20 2 0 3 -9 3 -20z m183 -17 c-7 -2 -21 -2
-30 0 -10 3 -4 5 12 5 17 0 24 -2 18 -5z m4207 -15 c0 -7 -4 -19 -9 -27 -11
-17 -25 3 -17 24 7 18 26 20 26 3z m178 -30 c-4 -49 -28 -66 -28 -20 0 37 9
62 22 62 5 0 8 -19 6 -42z m109 -20 c-2 -13 -4 -5 -4 17 -1 22 1 32 4 23 2
-10 2 -28 0 -40z m-5146 -34 l-9 -39 -1 50 c-1 33 2 46 9 39 7 -7 7 -24 1 -50z
m5356 19 c-3 -10 -5 -4 -5 12 0 17 2 24 5 18 2 -7 2 -21 0 -30z m-6013 -7 c-3
-15 -8 -25 -11 -23 -2 3 -1 17 3 31 3 15 8 25 11 23 2 -3 1 -17 -3 -31z m5516
8 c0 -8 -5 -12 -10 -9 -6 4 -8 11 -5 16 9 14 15 11 15 -7z m250 -8 c0 -3 -4
-8 -10 -11 -5 -3 -10 -1 -10 4 0 6 5 11 10 11 6 0 10 -2 10 -4z m-550 -36 c0
-13 -7 -20 -20 -20 -11 0 -20 7 -20 15 0 18 16 20 23 3 3 -8 6 -6 6 5 1 24 11
22 11 -3z m565 -39 c-9 -51 -25 -63 -25 -19 0 45 9 70 22 62 6 -4 7 -22 3 -43z
m-845 -5 c0 -2 -7 -6 -15 -10 -8 -3 -15 -1 -15 4 0 6 7 10 15 10 8 0 15 -2 15
-4z m468 -12 c-8 -9 -32 -16 -53 -17 -34 -1 -36 -3 -33 -29 3 -16 1 -31 -3
-33 -4 -3 -5 -14 -2 -24 3 -10 -1 -22 -7 -26 -10 -6 -11 7 -6 54 10 90 11 91
69 91 47 0 50 -1 35 -16z m-5309 -76 c-1 -47 -3 -57 -9 -38 -4 14 -8 20 -9 13
-1 -12 -41 -14 -41 -2 0 3 11 11 25 17 19 9 25 19 25 42 0 16 2 30 5 30 3 0 5
-28 4 -62z m737 14 c-12 -11 -18 7 -10 30 l8 23 4 -23 c2 -13 1 -26 -2 -30z
m4131 26 c-3 -8 -6 -5 -6 6 -1 11 2 17 5 13 3 -3 4 -12 1 -19z m237 -24 c9
-22 -3 -32 -14 -14 -12 19 -12 30 -1 30 5 0 12 -7 15 -16z m-4277 -46 c-3 -7
-5 -2 -5 12 0 14 2 19 5 13 2 -7 2 -19 0 -25z m4273 -47 c0 -45 -6 -37 -14 19
-4 31 -3 40 4 30 5 -8 10 -30 10 -49z m-5125 8 c-5 -15 -4 -19 4 -15 6 4 11 2
11 -4 0 -7 -8 -9 -19 -5 -14 4 -21 0 -24 -12 -2 -10 -4 -4 -4 14 0 21 6 34 16
36 9 3 17 5 19 6 2 0 0 -9 -3 -20z m5436 -254 c-24 -320 -32 -407 -47 -545 -8
-80 -17 -151 -20 -159 -9 -28 -72 48 -94 115 -27 80 -49 107 -100 124 -23 8
-44 19 -47 26 -2 7 7 35 21 63 15 28 35 74 47 102 11 29 29 73 41 98 11 25 35
80 53 121 49 111 110 250 131 295 l19 40 3 -70 c2 -38 -1 -133 -7 -210z
m-4533 139 c-3 -3 -15 2 -25 11 -14 12 -18 25 -15 48 l5 32 20 -42 c12 -24 18
-45 15 -49z m-918 36 c0 -5 -2 -10 -4 -10 -3 0 -8 5 -11 10 -3 6 -1 10 4 10 6
0 11 -4 11 -10z m4547 -27 c-3 -10 -5 -4 -5 12 0 17 2 24 5 18 2 -7 2 -21 0
-30z m585 -8 c-2 -19 -6 -35 -8 -35 -2 0 -4 16 -4 35 0 19 4 35 8 35 4 0 6
-16 4 -35z m525 3 c-3 -7 -5 -2 -5 12 0 14 2 19 5 13 2 -7 2 -19 0 -25z
m-5741 -59 c13 -14 14 -23 7 -30 -15 -15 -43 39 -42 78 l1 28 8 -29 c5 -15 17
-37 26 -47z m1012 21 c-14 -5 -18 -83 -5 -96 10 -11 9 -24 -3 -24 -5 0 -10 8
-11 18 -1 11 -4 9 -9 -8 -4 -14 -8 -87 -9 -162 -1 -134 0 -138 20 -138 20 0
21 -4 17 -50 -3 -27 -1 -50 3 -50 5 0 9 22 9 49 l0 50 42 3 c59 4 63 28 5 28
-35 0 -47 -4 -50 -17 -3 -12 -5 -10 -6 7 -1 19 -4 21 -10 11 -6 -9 -11 7 -15
50 -7 81 -4 114 11 114 6 0 15 3 19 7 4 5 14 -2 22 -13 11 -16 12 -23 3 -29
-9 -5 -9 -11 3 -23 9 -8 16 -18 16 -22 0 -10 27 -35 38 -35 8 0 52 -122 52
-145 0 -6 10 -28 21 -50 l21 -40 -21 19 c-17 16 -21 16 -21 4 0 -9 9 -22 21
-29 32 -22 15 -49 -31 -49 -30 0 -39 -4 -43 -22 -4 -12 -4 -24 -2 -27 3 -2 5
1 5 7 0 17 80 16 81 0 0 -7 7 5 14 27 l14 40 -6 -39 c-5 -34 -4 -38 12 -32 13
5 16 2 11 -10 -3 -8 -6 -22 -6 -30 0 -8 -4 -14 -10 -14 -5 0 -10 7 -10 16 0 8
-4 12 -10 9 -16 -10 -12 -23 10 -30 11 -4 18 -10 15 -15 -3 -5 5 -18 17 -29
17 -16 24 -18 31 -9 5 8 7 -4 3 -31 -3 -30 -1 -40 5 -30 6 10 9 7 9 -13 0 -15
5 -30 10 -33 6 -3 10 -21 10 -40 0 -42 17 -55 23 -18 2 16 5 2 6 -29 1 -58 -5
-68 -27 -46 -9 9 -12 7 -12 -11 0 -17 4 -22 16 -17 14 5 15 4 4 -9 -7 -8 -17
-12 -22 -9 -6 4 -5 -2 1 -14 17 -31 14 -47 -4 -32 -8 7 -15 19 -15 26 0 8 -4
14 -10 14 -5 0 -10 10 -10 23 0 18 2 19 10 7 8 -13 10 -12 10 4 0 13 -5 17
-20 13 -20 -5 -50 29 -50 57 0 8 -4 16 -10 18 -5 2 -11 14 -12 28 -2 19 2 25
22 30 21 4 26 12 28 43 3 32 1 37 -17 37 -15 0 -23 -10 -31 -40 -10 -36 -30
-56 -30 -30 0 6 5 10 10 10 17 0 11 30 -7 37 -24 9 -49 35 -57 61 -4 12 -12
22 -17 22 -6 0 -7 5 -3 12 5 8 2 9 -12 4 -10 -4 -15 -4 -12 0 4 3 0 21 -9 38
-10 17 -16 39 -14 50 2 11 -2 16 -8 12 -7 -4 -11 1 -11 13 0 11 -5 23 -11 27
-7 4 -8 9 -1 13 6 3 14 20 18 36 7 27 6 29 -9 16 -15 -12 -17 -11 -17 2 0 9
-7 20 -15 24 -11 7 -15 52 -19 245 -2 131 -7 242 -11 248 -3 5 -1 10 4 10 6 0
11 6 11 14 0 12 5 12 30 3 18 -7 25 -14 18 -17z m3519 5 c10 -11 12 -19 5 -28
-6 -7 -13 -47 -17 -91 -5 -49 -11 -73 -16 -65 -7 12 -9 12 -9 0 0 -8 -3 -11
-6 -8 -4 4 -2 12 3 19 15 18 26 128 13 128 -5 0 -10 -4 -10 -10 0 -5 -4 -10
-9 -10 -5 0 -7 9 -4 20 3 11 11 20 18 20 8 0 11 8 8 20 -6 24 3 26 24 5z
m1168 -30 c6 -29 6 -29 -9 -11 -9 11 -16 29 -16 40 0 28 17 8 25 -29z m22 13
c-3 -7 -5 -2 -5 12 0 14 2 19 5 13 2 -7 2 -19 0 -25z m-5057 -20 c0 -38 -5
-34 -13 10 -4 21 -3 31 3 27 6 -3 10 -20 10 -37z m3962 2 c-3 -20 0 -30 8 -30
10 0 11 -13 5 -52 -4 -29 -8 -65 -10 -79 -1 -14 -5 -31 -9 -37 -4 -7 -4 -21
-1 -32 4 -11 2 -20 -3 -20 -15 0 -21 25 -11 41 12 19 11 59 -1 59 -5 0 -10 5
-10 11 0 5 5 7 12 3 7 -5 8 -3 4 5 -5 7 0 18 10 26 17 12 17 17 6 47 -14 39
-16 88 -4 88 5 0 7 -13 4 -30z m-3576 -108 c3 -20 9 -30 16 -26 7 4 8 3 4 -5
-4 -6 -2 -27 5 -46 9 -23 10 -38 3 -45 -7 -7 -14 10 -23 50 -8 37 -17 57 -24
53 -7 -4 -8 0 -4 11 4 10 8 36 8 59 2 32 3 35 6 12 2 -16 6 -45 9 -63z m3354
84 c0 -2 -7 -6 -15 -10 -8 -3 -15 -1 -15 4 0 6 7 10 15 10 8 0 15 -2 15 -4z
m-6 -29 c3 3 6 -2 6 -12 0 -15 -3 -16 -12 -7 -7 7 -17 12 -22 12 -6 0 -5 -4 3
-9 12 -8 12 -12 2 -25 -12 -15 -8 -20 12 -17 4 0 7 -6 7 -14 0 -8 -10 -16 -22
-16 l-23 -2 23 -4 c12 -2 22 -9 22 -15 0 -5 -7 -7 -16 -4 -9 3 -21 6 -27 6 -7
0 -29 15 -50 33 -37 31 -37 32 -16 45 11 7 24 11 27 7 4 -3 0 -10 -7 -14 -23
-14 5 -21 33 -8 30 14 34 26 9 28 -17 1 -17 2 0 6 9 2 14 9 11 15 -4 6 1 6 13
-1 11 -6 23 -7 27 -4z m1303 -9 c-3 -8 -6 -5 -6 6 -1 11 2 17 5 13 3 -3 4 -12
1 -19z m-5290 -45 c-3 -10 -5 -2 -5 17 0 19 2 27 5 18 2 -10 2 -26 0 -35z
m3442 19 c90 -56 214 -81 310 -62 51 9 57 8 110 -21 148 -84 221 -133 221
-149 0 -58 56 -195 93 -226 l28 -24 -11 -92 c-11 -94 -54 -351 -70 -422 -5
-21 -17 -47 -27 -57 -20 -20 -122 -85 -295 -190 -111 -66 -148 -99 -95 -84 55
16 262 125 361 190 l30 20 -8 -25 c-4 -14 -14 -56 -21 -95 -22 -109 -46 -193
-80 -280 -35 -91 -35 -91 -171 -131 -360 -104 -414 -118 -549 -134 -417 -52
-540 -58 -800 -36 -229 19 -414 44 -432 58 -7 5 -17 7 -23 3 -11 -7 -189 36
-253 60 -20 8 -49 15 -62 15 -33 0 -319 96 -367 123 -32 17 -44 37 -37 60 0 1
-5 16 -11 32 -19 50 -50 243 -50 315 0 80 13 101 80 120 25 7 80 31 122 53
103 52 146 62 173 38 11 -10 28 -21 37 -24 15 -5 14 -2 -3 27 -19 32 -19 35
-2 64 10 17 30 38 45 47 51 30 58 52 64 196 3 73 9 139 13 147 7 12 25 15 77
13 61 -1 82 4 174 42 58 24 141 67 184 96 141 96 235 110 384 61 69 -23 102
-24 211 -5 66 12 107 27 190 71 58 31 113 62 121 69 8 7 48 30 89 51 41 21 84
47 95 56 12 9 32 26 46 37 34 27 55 26 109 -7z m638 -14 c-3 -7 -5 -2 -5 12 0
14 2 19 5 13 2 -7 2 -19 0 -25z m-3348 8 c7 -8 8 -17 3 -20 -6 -3 -12 3 -15
14 -6 24 -4 25 12 6z m4141 -68 c0 -8 5 -19 11 -25 8 -8 6 -23 -9 -55 -12 -23
-23 -50 -26 -58 -3 -10 -5 -8 -5 6 -1 11 6 29 14 40 8 10 14 30 14 44 0 14 -3
18 -6 10 -15 -45 -15 -45 -24 -21 -8 19 -6 27 6 33 8 5 15 17 15 26 0 15 -2
15 -10 2 -8 -12 -10 -9 -10 13 0 25 2 27 15 13 8 -8 15 -21 15 -28z m-4110 15
c0 -10 -4 -14 -8 -8 -4 6 -11 13 -16 18 -5 4 -2 7 7 7 10 0 17 -8 17 -17z
m-389 -37 c12 -13 11 -66 -1 -66 -5 0 -9 10 -9 23 1 12 -1 36 -4 52 -2 17 -2
23 0 15 3 -8 9 -19 14 -24z m4889 40 c0 -3 -4 -8 -10 -11 -5 -3 -10 -1 -10 4
0 6 5 11 10 11 6 0 10 -2 10 -4z m-1250 -47 c0 -6 -4 -7 -10 -4 -5 3 -10 11
-10 16 0 6 5 7 10 4 6 -3 10 -11 10 -16z m77 -11 c-3 -7 -5 -2 -5 12 0 14 2
19 5 13 2 -7 2 -19 0 -25z m-3623 -123 c3 -66 0 -96 -10 -110 -14 -18 -14 -18
-14 2 0 12 -4 24 -8 27 -12 7 -14 133 -2 141 5 3 10 25 11 48 1 41 1 41 10 12
5 -16 11 -71 13 -120z m406 134 c24 -1 24 -1 -4 -9 -18 -6 -36 -5 -48 1 -25
13 -23 23 5 15 12 -3 33 -6 47 -7z m-860 -50 c0 -21 -4 -39 -10 -39 -5 0 -10
21 -10 46 0 27 4 43 10 39 6 -3 10 -24 10 -46z m817 -8 c2 -22 -2 -31 -12 -31
-8 0 -15 -7 -15 -15 0 -9 6 -12 18 -9 10 4 13 3 6 -3 -6 -4 -13 -15 -16 -23
-3 -9 -8 -3 -12 17 -5 21 -2 41 9 62 16 33 4 44 -15 14 -10 -16 -11 -15 -7 5
6 26 -9 30 -16 5 -3 -11 -5 -8 -6 9 -1 27 -1 27 31 13 26 -10 33 -20 35 -44z
m153 17 c19 -7 44 -19 55 -26 l20 -14 -20 7 c-11 4 -29 10 -40 13 -11 2 -25 9
-32 14 -7 5 -21 7 -31 4 -10 -4 -32 1 -48 9 l-29 16 45 -5 c25 -2 61 -11 80
-18z m-86 -28 c19 0 36 6 39 13 2 6 8 8 13 4 5 -4 2 -12 -6 -17 -8 -5 -11 -12
-7 -17 4 -4 17 -2 27 5 29 18 45 15 29 -5 -13 -15 -11 -16 13 -10 33 9 66 -2
46 -14 -8 -6 0 -8 22 -5 19 2 43 -2 52 -8 19 -11 25 -46 8 -46 -5 0 -7 7 -4
15 7 18 -25 33 -35 17 -3 -6 -15 -9 -26 -7 -11 2 -26 4 -32 4 -7 1 -13 10 -13
22 0 11 -4 17 -10 14 -5 -3 -10 -24 -10 -46 l0 -39 83 -1 c45 0 91 -4 102 -8
17 -7 18 -9 2 -17 -17 -10 -14 -54 5 -54 5 0 7 10 3 23 -6 21 -5 21 9 4 8 -11
12 -25 9 -33 -3 -8 0 -14 6 -14 6 0 11 -6 11 -13 0 -7 9 -33 21 -56 11 -24 18
-49 15 -57 -3 -9 1 -14 12 -14 13 0 14 -2 3 -9 -11 -7 -10 -14 5 -40 20 -33
29 -38 37 -18 3 7 6 5 6 -5 1 -10 6 -18 11 -18 6 0 10 -4 10 -8 0 -5 -13 -9
-30 -10 -16 0 -30 4 -30 10 0 5 -8 20 -17 32 -18 22 -18 21 -19 -38 0 -34 1
-53 4 -43 5 22 18 22 31 0 8 -14 12 -15 25 -4 14 11 16 11 16 -3 0 -9 -6 -16
-12 -17 -10 0 -10 -2 0 -6 6 -2 12 -11 12 -19 0 -8 -6 -14 -12 -14 -29 -1 40
-29 71 -30 38 0 37 10 -1 14 -32 3 -48 14 -48 33 0 14 2 14 19 -1 11 -10 24
-15 30 -12 14 9 41 -22 35 -39 -4 -8 -10 -13 -14 -10 -4 3 -4 -11 0 -30 4 -19
5 -37 2 -40 -4 -3 2 -3 11 1 13 5 15 10 8 17 -14 14 -14 37 -1 37 6 0 10 -9
10 -20 0 -15 7 -20 25 -20 14 0 25 -5 25 -11 0 -6 -9 -8 -20 -4 -11 4 -20 2
-20 -4 0 -6 9 -11 20 -11 27 0 25 -18 -2 -23 -13 -2 -8 -3 11 -1 24 2 31 0 24
-7 -6 -6 -28 -11 -49 -12 -27 -1 -45 -8 -60 -24 -12 -13 -28 -23 -36 -23 -8 0
-20 -6 -27 -12 -10 -11 -11 -10 -6 5 4 10 2 17 -5 17 -6 0 -9 3 -7 8 3 4 -8 7
-24 7 -19 0 -29 -5 -29 -15 0 -13 -2 -13 -9 0 -6 8 -8 17 -5 22 3 4 -9 14 -26
23 -16 8 -30 20 -30 26 0 8 5 7 15 -1 22 -18 18 0 -5 25 -12 12 -22 35 -23 51
-2 23 2 29 21 30 12 1 22 -5 22 -12 0 -7 6 -11 13 -8 16 6 22 80 7 89 -6 4
-10 -6 -10 -24 0 -17 -4 -31 -10 -31 -5 0 -10 16 -10 35 0 43 -24 47 -64 10
-34 -31 -49 -32 -66 0 -7 13 -17 22 -22 19 -4 -3 -8 1 -8 10 0 8 3 16 8 19 4
2 2 3 -4 1 -15 -3 -46 34 -39 46 4 6 2 10 -3 10 -5 0 -7 25 -4 56 3 39 1 55
-6 50 -6 -3 -15 2 -21 11 -5 10 -12 15 -15 12 -10 -10 5 -39 20 -39 9 0 14
-12 14 -36 0 -23 -4 -33 -11 -28 -6 3 -8 17 -5 30 4 14 2 24 -4 24 -5 0 -10
-6 -11 -12 0 -7 -5 -2 -11 12 -6 14 -10 29 -9 34 1 4 -5 19 -14 32 -9 14 -13
29 -10 34 3 6 -4 10 -17 11 -13 0 -17 3 -10 6 18 7 16 83 -3 83 -11 0 -14 -7
-9 -25 4 -15 2 -25 -5 -25 -6 0 -11 6 -11 14 0 7 -7 19 -16 27 -8 7 -13 21
-11 31 3 10 -1 24 -8 32 -11 10 -11 18 -2 36 20 39 36 36 27 -3 -4 -19 -7 -45
-6 -58 1 -30 26 -38 26 -8 0 21 1 22 16 7 9 -9 20 -31 25 -49 8 -33 8 -33 4 6
-4 39 -33 148 -34 132 -1 -5 -8 -1 -17 7 -8 9 -20 14 -25 11 -5 -4 -9 11 -8
32 0 33 1 35 9 16 7 -18 17 -23 44 -23z m3596 30 c0 -5 -4 -10 -10 -10 -5 0
-10 5 -10 10 0 6 5 10 10 10 6 0 10 -4 10 -10z m-283 -43 c3 -5 -2 -14 -11
-19 -13 -7 -16 -17 -11 -36 5 -22 4 -24 -9 -13 -19 16 -21 51 -3 51 7 1 5 6
-5 14 -10 7 -18 15 -18 18 0 9 50 -4 57 -15z m613 -34 c-11 -17 -11 -17 -6 0
3 10 7 28 7 40 2 22 2 22 6 0 2 -12 -1 -30 -7 -40z m-321 -6 c1 -5 -4 -5 -11
-1 -8 5 -9 -4 -4 -34 4 -29 3 -42 -6 -42 -6 0 -8 3 -5 6 3 4 2 15 -4 26 -6 11
-7 27 -3 36 8 20 11 27 13 45 2 11 19 -18 20 -36z m-3402 27 c-3 -3 -12 -4
-19 -1 -8 3 -5 6 6 6 11 1 17 -2 13 -5z m-804 -19 c-3 -9 -8 -14 -10 -11 -3 3
-2 9 2 15 9 16 15 13 8 -4z m-276 -57 c-2 -13 -4 -3 -4 22 0 25 2 35 4 23 2
-13 2 -33 0 -45z m5193 34 c0 -16 -8 -33 -19 -41 -11 -8 -17 -19 -15 -25 3 -7
0 -30 -5 -51 -8 -36 -9 -33 -9 35 0 50 2 68 8 55 7 -17 9 -15 9 11 1 49 31 65
31 16z m-391 -45 c-5 -20 -15 -37 -21 -37 -7 0 -7 4 -1 13 6 6 13 25 17 41 4
15 9 26 11 24 3 -2 0 -21 -6 -41z m-3535 11 c3 -13 1 -27 -4 -32 -7 -7 -10 -4
-10 6 0 9 -3 23 -6 32 -3 9 -2 16 4 16 5 0 12 -10 16 -22z m44 10 c-2 -8 7
-12 25 -12 17 1 20 0 7 -3 -16 -4 -18 -8 -10 -24 9 -15 7 -19 -7 -19 -15 0
-15 -2 -3 -9 8 -6 18 -7 22 -5 4 3 8 0 8 -5 0 -6 -10 -11 -22 -12 -18 -1 -16
-3 10 -10 29 -9 45 -29 22 -29 -5 0 -10 -8 -10 -17 -1 -12 -6 -7 -15 12 l-14
30 6 -40 c7 -51 9 -53 33 -25 22 25 26 20 9 -12 -6 -11 -7 -18 -2 -15 6 4 15
-9 20 -28 8 -25 8 -35 -1 -39 -6 -2 -3 -5 7 -5 18 -1 20 -8 17 -55 -1 -20 2
-26 11 -21 8 5 10 4 5 -3 -4 -7 -2 -12 4 -12 7 0 9 -8 5 -20 -4 -11 -2 -20 4
-20 6 0 11 -4 11 -10 0 -23 -16 -7 -37 35 -13 26 -19 53 -15 67 5 20 3 21 -10
11 -12 -11 -17 -9 -26 13 -7 14 -12 37 -13 52 0 24 -1 25 -9 7 -8 -18 -9 -17
-9 8 -1 16 -5 26 -9 23 -5 -3 -7 9 -5 27 2 30 2 31 -7 7 -9 -22 -9 -21 -6 10
3 19 0 44 -5 55 -9 19 -9 18 -5 -2 2 -13 0 -23 -5 -23 -10 0 -12 90 -3 114 7
19 25 22 22 4z m2842 -28 c0 -10 -4 -22 -10 -25 -6 -4 -10 7 -10 25 0 18 4 29
10 25 6 -3 10 -15 10 -25z m-2687 9 c26 1 37 -3 37 -13 0 -8 7 -21 15 -30 14
-13 13 -16 -4 -26 -27 -14 -34 -13 -27 5 3 8 1 15 -4 15 -6 0 -11 -8 -11 -17
-1 -16 -2 -17 -6 -1 -2 10 -10 15 -19 11 -10 -4 -14 3 -14 22 0 24 -3 27 -25
23 -24 -5 -32 2 -18 16 4 3 14 3 22 0 9 -4 33 -6 54 -5z m2711 -36 c-2 -38 -4
-41 -13 -18 -9 21 -4 45 8 45 4 0 6 -12 5 -27z m-2449 2 c50 -8 108 -16 130
-17 25 -1 11 -4 -35 -8 -56 -5 -64 -7 -30 -8 33 -2 41 -5 30 -12 -8 -5 -25 -7
-37 -4 -12 3 -29 2 -38 -4 -15 -8 -16 -10 -1 -15 8 -3 18 -2 20 2 7 11 56 1
56 -10 0 -5 -29 -8 -65 -7 -36 2 -60 5 -55 6 6 2 10 10 10 18 0 8 6 14 13 14
8 0 7 4 -3 10 -13 9 -13 11 0 20 16 11 -31 16 -102 11 -22 -1 -38 2 -38 8 0
15 38 14 145 -4z m-76 -21 c2 -2 -8 -5 -23 -9 -14 -3 -38 -7 -52 -10 -15 -4
-24 -8 -22 -11 3 -2 28 1 56 7 28 6 64 9 79 6 20 -3 16 -4 -15 -6 -26 0 -41
-5 -37 -11 3 -6 -1 -7 -10 -4 -9 4 -15 3 -13 -2 2 -5 -5 -19 -14 -32 -11 -17
-17 -20 -21 -10 -4 9 -6 7 -6 -4 -1 -10 10 -25 24 -34 14 -9 25 -25 25 -36 0
-18 1 -18 16 -4 8 9 18 16 22 16 3 0 1 -5 -6 -12 -16 -16 -15 -38 1 -38 7 0
12 -13 12 -30 0 -16 0 -30 0 -30 0 0 -14 14 -30 32 -17 18 -24 28 -16 23 10
-5 12 -4 7 3 -4 7 -13 12 -20 12 -7 0 -21 9 -31 20 -15 17 -16 22 -4 36 12 15
11 16 -10 9 -16 -5 -21 -4 -17 4 4 6 1 11 -8 11 -8 0 -18 5 -22 11 -4 8 0 9
15 4 12 -4 21 -2 21 4 0 6 -7 11 -15 11 -8 0 -15 5 -15 11 0 6 7 8 16 5 10 -4
14 -1 12 6 -7 21 -38 22 -38 2 0 -14 -3 -15 -12 -6 -10 10 -7 16 10 28 13 9
28 22 35 29 8 9 26 12 57 8 25 -3 47 -7 49 -9z m2488 -16 c-3 -8 -6 -5 -6 6
-1 11 2 17 5 13 3 -3 4 -12 1 -19z m-2173 3 c3 -5 -8 -11 -25 -15 -51 -10 -66
-6 -34 9 36 16 52 18 59 6z m-1645 -57 c14 -38 11 -53 -6 -32 -14 18 -25 68
-15 68 4 0 14 -16 21 -36z m98 20 c11 -11 14 -26 10 -52 -5 -25 -3 -32 3 -22
7 11 10 4 10 -27 0 -23 -5 -45 -12 -49 -7 -5 -8 -3 -3 6 4 7 3 15 -3 19 -5 3
-13 29 -16 56 -4 28 -9 58 -12 68 -7 21 2 22 23 1z m42 -74 c0 -49 -4 -90 -9
-90 -4 0 -10 -6 -13 -12 -2 -7 -2 -4 2 7 3 11 4 57 3 103 -1 45 2 82 7 82 5 0
9 -40 10 -90z m1238 84 c-3 -3 -12 -4 -19 -1 -8 3 -5 6 6 6 11 1 17 -2 13 -5z
m-166 -145 c48 -58 104 -118 124 -133 29 -22 35 -33 33 -59 -2 -42 -13 -63
-51 -98 -52 -46 -43 -57 -132 161 -14 36 -41 101 -60 145 -18 44 -36 91 -40
105 l-8 25 23 -20 c12 -11 62 -68 111 -126z m359 137 c0 -11 -19 -15 -25 -6
-3 5 1 10 9 10 9 0 16 -2 16 -4z m37 -2 c-3 -3 -12 -4 -19 -1 -8 3 -5 6 6 6
11 1 17 -2 13 -5z m-264 -11 c-7 -2 -19 -2 -25 0 -7 3 -2 5 12 5 14 0 19 -2
13 -5z m27 -23 c0 -5 -15 -10 -32 -9 -28 0 -30 2 -13 9 28 12 45 12 45 0z
m-852 -52 c13 -24 32 -56 42 -73 11 -16 23 -37 27 -45 19 -42 145 -224 198
-285 119 -138 117 -136 102 -154 -34 -39 -38 -149 -11 -296 9 -49 18 -117 20
-150 1 -33 7 -123 12 -200 9 -141 1 -207 -13 -98 -13 115 -85 440 -116 523
-61 169 -90 248 -160 435 -104 277 -139 375 -139 386 0 18 15 1 38 -43z m3532
42 c0 -5 -4 -10 -10 -10 -5 0 -10 5 -10 10 0 6 5 10 10 10 6 0 10 -4 10 -10z
m-3800 -10 c0 -5 -4 -10 -10 -10 -5 0 -10 5 -10 10 0 6 5 10 10 10 6 0 10 -4
10 -10z m3834 -34 c3 -13 2 -35 -3 -48 l-10 -23 0 24 c-1 19 -4 21 -15 12 -18
-15 -34 5 -18 21 6 6 8 17 5 24 -3 9 2 14 15 14 13 0 22 -9 26 -24z m-4060
-46 c5 -23 4 -30 -2 -20 -14 23 -25 77 -14 65 6 -5 13 -26 16 -45z m4507 23
c27 -23 61 -124 65 -193 5 -78 16 -122 32 -128 9 -3 12 17 12 67 0 68 12 93
25 52 3 -10 64 -77 135 -149 72 -72 130 -137 130 -146 0 -9 -42 -36 -107 -70
-60 -30 -169 -86 -243 -124 -74 -38 -153 -76 -175 -84 -22 -9 -128 -59 -235
-111 -107 -52 -233 -107 -280 -122 -47 -15 -97 -33 -112 -41 -26 -14 -68 -19
-68 -9 0 11 33 70 56 100 55 73 224 439 224 485 0 5 26 27 58 48 60 42 248
219 276 262 34 52 14 50 -42 -4 -32 -31 -74 -68 -94 -81 -20 -13 -38 -28 -40
-32 -5 -13 -85 -73 -97 -73 -15 0 -15 -1 20 114 16 56 37 125 46 154 21 68 44
78 207 93 66 6 123 13 126 15 8 8 65 -8 81 -23z m-528 -14 c20 2 27 0 27 -8 0
-12 -70 -20 -77 -8 -3 4 3 16 13 26 16 15 20 16 24 4 3 -8 9 -14 13 -14z m57
-77 c0 -39 -24 -40 -27 -1 l-2 24 9 -25 c8 -20 9 -15 5 20 -4 32 -2 41 5 30 5
-8 10 -30 10 -48z m-4343 -39 c-3 -10 -5 -2 -5 17 0 19 2 27 5 18 2 -10 2 -26
0 -35z m426 -48 c4 -32 3 -43 -3 -30 -8 19 -14 93 -6 84 2 -2 6 -26 9 -54z
m-416 -18 c-9 -7 -9 -10 1 -14 6 -2 12 -11 12 -19 0 -9 -4 -12 -10 -9 -6 3
-10 -5 -10 -19 0 -14 5 -28 12 -32 8 -5 9 -2 5 9 -3 9 -1 19 5 23 8 5 9 -5 4
-36 -4 -23 -3 -47 2 -54 15 -18 24 -56 14 -56 -6 0 -13 11 -16 25 -4 14 -12
25 -18 25 -9 0 -9 -3 0 -12 7 -7 12 -21 12 -32 0 -16 -3 -17 -12 -8 -7 7 -11
33 -10 57 1 25 -3 45 -8 45 -5 0 -7 17 -4 38 2 20 4 55 4 77 0 38 1 39 15 21
12 -16 12 -22 2 -29z m-32 -45 c-6 -46 -9 -53 -17 -37 -8 13 -7 24 1 36 6 11
11 33 12 51 0 18 3 27 6 20 3 -7 2 -39 -2 -70z m1332 72 c-3 -3 -12 -4 -19 -1
-8 3 -5 6 6 6 11 1 17 -2 13 -5z m23 -42 c0 -15 -2 -15 -10 -2 -13 20 -13 33
0 25 6 -3 10 -14 10 -23z m104 -8 c3 -8 2 -12 -4 -9 -6 3 -10 10 -10 16 0 14
7 11 14 -7z m2768 -61 c-2 -37 2 -69 7 -73 7 -4 8 -28 1 -75 -6 -39 -11 -75
-12 -82 -2 -16 -28 -26 -28 -10 -1 7 -7 -3 -16 -22 -18 -42 -30 -34 -16 11 6
18 16 73 23 121 8 55 16 81 20 70 4 -10 5 -27 3 -38 -2 -11 -6 -31 -8 -45 -2
-14 -7 -38 -11 -55 l-6 -30 20 24 c23 25 26 71 12 169 -8 53 -3 118 7 107 3
-3 5 -36 4 -72z m88 42 c0 -8 -4 -15 -10 -15 -5 0 -7 7 -4 15 4 8 8 15 10 15
2 0 4 -7 4 -15z m-3203 -27 c6 -7 13 -29 17 -48 5 -26 4 -32 -5 -23 -7 7 -13
23 -14 35 -1 13 -8 22 -14 21 -6 -2 -11 4 -11 12 0 18 14 20 27 3z m3165 -59
c5 -3 2 -21 -7 -40 l-15 -34 6 36 c3 22 1 39 -5 43 -6 4 -11 17 -10 29 0 21 1
21 12 -3 6 -14 15 -28 19 -31z m-3363 -79 c6 -18 6 -28 1 -25 -17 11 -11 -7 8
-21 10 -8 12 -13 5 -14 -18 0 -16 -20 2 -20 8 0 15 -8 15 -17 0 -15 -2 -16
-10 -3 -8 12 -10 11 -10 -7 0 -13 -4 -23 -10 -23 -5 0 -10 10 -10 23 0 13 -5
28 -10 33 -8 8 -3 104 5 104 2 0 8 -14 14 -30z m-489 -1 c0 -5 -4 -9 -10 -9
-5 0 -10 7 -10 16 0 8 5 12 10 9 6 -3 10 -10 10 -16z m-326 -28 c3 -4 -3 -16
-13 -25 -17 -16 -19 -16 -25 -1 -3 9 -4 21 0 26 7 11 31 12 38 0z m1166 -35
c0 -11 -19 -15 -25 -6 -3 5 1 10 9 10 9 0 16 -2 16 -4z m-1160 -36 c0 -11 -2
-20 -4 -20 -2 0 -6 9 -9 20 -3 11 -1 20 4 20 5 0 9 -9 9 -20z m336 -8 c1 -12
-3 -19 -8 -16 -4 3 -6 10 -3 15 4 5 1 9 -4 9 -6 0 -11 5 -11 11 0 20 25 2 26
-19z m443 -41 c-1 -13 -2 -13 -6 2 -2 9 -9 17 -14 17 -5 0 -9 5 -9 11 0 8 5 8
15 -1 8 -7 14 -20 14 -29z m66 -20 c-11 -60 -22 -68 -23 -16 -1 53 4 69 20 59
6 -4 7 -21 3 -43z m-42 -11 c3 -11 1 -18 -4 -14 -5 3 -9 12 -9 20 0 20 7 17
13 -6z m3287 10 c0 -5 -5 -10 -11 -10 -5 0 -7 5 -4 10 3 6 8 10 11 10 2 0 4
-4 4 -10z m-3720 -21 c0 -6 -4 -7 -10 -4 -5 3 -10 11 -10 16 0 6 5 7 10 4 6
-3 10 -11 10 -16z m3710 -8 c0 -6 -4 -13 -10 -16 -5 -3 -10 1 -10 9 0 9 5 16
10 16 6 0 10 -4 10 -9z m-3198 -47 c-5 -9 -7 -26 -4 -38 6 -18 7 -17 13 9 5
24 6 20 6 -17 -1 -27 -5 -48 -9 -48 -4 0 -8 9 -8 20 0 10 -6 25 -14 32 -11 11
-11 18 3 46 8 19 17 29 19 23 2 -6 -1 -18 -6 -27z m-26 1 c-3 -9 -10 -13 -16
-10 -6 4 -5 11 3 20 15 16 22 11 13 -10z m3197 -14 c-3 -11 -14 -27 -24 -37
-18 -16 -19 -16 -19 0 0 9 5 14 10 11 6 -3 10 2 10 13 0 19 8 32 21 32 4 0 5
-9 2 -19z m-3136 -103 c-3 -8 -6 -5 -6 6 -1 11 2 17 5 13 3 -3 4 -12 1 -19z"/>
<path d="M4940 7840 c-89 -28 -230 -84 -315 -125 -147 -70 -175 -84 -235 -115
-36 -19 -67 -36 -70 -39 -7 -8 -46 -30 -111 -62 -68 -34 -89 -56 -64 -65 12
-5 23 0 34 14 11 15 23 20 39 16 12 -4 22 -2 22 3 0 4 15 16 33 25 126 64 400
194 490 233 60 25 132 59 160 74 29 16 76 36 105 46 28 9 52 18 52 21 0 11
-63 -1 -140 -26z"/>
<path d="M4091 7474 c-24 -31 -26 -44 -8 -44 11 0 47 49 47 64 0 14 -20 4 -39
-20z"/>
<path d="M2625 7413 c-40 -10 -35 -21 12 -27 26 -3 82 -11 123 -16 41 -5 152
-21 245 -35 201 -30 202 -30 186 -11 -7 8 -35 19 -64 26 -29 6 -63 15 -77 20
-52 19 -389 53 -425 43z"/>
<path d="M3200 7404 c20 -23 48 -35 90 -40 34 -4 38 -3 33 15 -7 27 -29 45
-37 32 -5 -7 -15 -7 -32 -1 -14 6 -35 10 -46 10 -17 0 -19 -2 -8 -16z"/>
<path d="M7045 7035 c-74 -30 -125 -84 -171 -180 -30 -61 -34 -79 -34 -148 0
-141 54 -285 132 -352 58 -49 149 -94 222 -109 69 -15 101 -32 209 -111 110
-80 256 -300 257 -386 0 -17 -13 -38 -40 -63 -22 -20 -40 -44 -40 -53 0 -30
170 -191 262 -248 96 -58 157 -84 104 -43 -69 53 -285 261 -291 279 -5 14 4
31 30 61 34 37 37 44 31 82 -22 137 -204 377 -361 477 -46 29 -101 50 -199 75
-61 16 -75 24 -128 78 -68 68 -106 121 -114 157 -32 137 -32 197 0 265 46 98
138 174 213 174 39 0 81 -33 100 -79 14 -34 16 -35 29 -16 10 13 14 38 12 70
-3 44 -7 52 -37 72 -45 30 -108 30 -186 -2z"/>
<path d="M8095 5850 c-18 -35 -19 -63 -2 -113 22 -62 75 -88 98 -46 7 13 8 42
4 80 -11 98 -67 142 -100 79z"/>
<path d="M7203 5543 c-18 -2 -33 -8 -33 -13 0 -9 28 -16 110 -25 30 -4 79 -14
108 -23 45 -14 52 -19 52 -41 0 -14 -9 -46 -20 -70 -19 -40 -19 -46 -5 -61 9
-10 44 -23 78 -30 34 -6 94 -25 132 -41 130 -53 170 -49 98 10 -43 35 -110 63
-195 81 -32 6 -58 15 -58 19 0 5 7 25 15 44 20 48 19 61 -7 92 -45 51 -152 73
-275 58z"/>
<path d="M4496 7061 c-4 -5 3 -7 14 -4 23 6 26 13 6 13 -8 0 -17 -4 -20 -9z"/>
<path d="M4365 7018 c-22 -11 -48 -24 -57 -29 -10 -5 -25 -9 -33 -9 -8 0 -15
-3 -15 -7 0 -7 -38 -27 -131 -68 -43 -19 -122 -23 -269 -13 -116 7 -49 -5 97
-18 80 -7 81 -7 60 -25 -37 -30 -15 -28 53 3 36 17 74 34 85 38 36 14 160 73
165 79 9 10 95 51 108 51 6 0 12 5 12 10 0 15 -31 10 -75 -12z"/>
<path d="M3135 6520 c-3 -5 -1 -10 4 -10 6 0 11 5 11 10 0 6 -2 10 -4 10 -3 0
-8 -4 -11 -10z"/>
<path d="M5320 5835 c0 -27 3 -45 7 -42 7 8 6 77 -2 85 -3 3 -5 -16 -5 -43z"/>
<path d="M6172 5380 c0 -14 2 -19 5 -12 2 6 2 18 0 25 -3 6 -5 1 -5 -13z"/>
<path d="M4720 5375 c0 -3 12 -18 28 -33 15 -15 34 -36 42 -48 18 -25 60 -41
60 -24 0 7 8 10 20 7 16 -4 20 0 19 21 0 15 -3 21 -6 14 -3 -9 -12 -5 -30 14
-13 14 -26 24 -29 21 -3 -2 2 -12 11 -20 14 -14 21 -37 11 -37 -2 0 -12 -3
-21 -7 -14 -5 -16 -2 -10 17 6 18 4 22 -7 18 -9 -4 -23 7 -37 28 -20 29 -51
46 -51 29z"/>
<path d="M3780 5023 c0 -10 5 -25 10 -33 8 -12 10 -9 10 12 0 15 -4 30 -10 33
-5 3 -10 -2 -10 -12z"/>
<path d="M4452 4945 c0 -16 2 -22 5 -12 2 9 2 23 0 30 -3 6 -5 -1 -5 -18z"/>
<path d="M6820 4796 c0 -8 5 -18 10 -21 6 -3 10 3 10 14 0 12 -4 21 -10 21 -5
0 -10 -6 -10 -14z"/>
<path d="M4450 4779 c0 -8 -3 -24 -6 -36 -5 -19 -2 -23 15 -23 11 0 21 5 21
10 0 6 -5 10 -11 10 -8 0 -8 4 0 14 9 10 8 16 -4 26 -12 10 -15 10 -15 -1z"/>
<path d="M6902 4687 c-6 -7 -7 -18 -3 -26 9 -13 13 -9 24 22 7 20 -6 23 -21 4z"/>
<path d="M2290 4542 c0 -5 7 -17 15 -28 15 -19 20 -8 9 20 -6 17 -24 22 -24 8z"/>
<path d="M6993 4529 c8 -11 12 -30 9 -41 -4 -17 -2 -20 11 -15 9 3 19 2 22 -3
4 -6 -1 -10 -9 -10 -10 0 -16 -9 -16 -21 0 -14 5 -19 14 -16 9 4 17 -1 19 -11
3 -9 5 -1 6 18 1 45 -9 81 -20 74 -5 -3 -13 6 -19 20 -5 14 -14 26 -20 26 -7
0 -5 -8 3 -21z"/>
<path d="M7050 4348 c0 -49 5 -47 13 5 3 20 2 37 -4 37 -5 0 -9 -19 -9 -42z"/>
<path d="M7023 4280 c-1 -51 3 -81 14 -95 13 -18 14 -13 7 49 -11 109 -20 128
-21 46z"/>
<path d="M7045 3838 c7 -160 9 -177 21 -165 10 10 -8 327 -19 327 -6 0 -7 -56
-2 -162z"/>
<path d="M2693 3890 c0 -25 2 -35 4 -22 2 12 2 32 0 45 -2 12 -4 2 -4 -23z"/>
<path d="M2697 3758 c8 -97 13 -99 13 -5 0 43 -4 77 -9 77 -6 0 -7 -30 -4 -72z"/>
<path d="M2722 3695 c0 -16 2 -22 5 -12 2 9 2 23 0 30 -3 6 -5 -1 -5 -18z"/>
<path d="M1913 3024 c-8 -22 4 -29 21 -11 14 13 14 16 0 21 -8 3 -17 -1 -21
-10z"/>
<path d="M1900 2971 c0 -12 6 -21 15 -21 8 0 15 4 15 9 0 5 -7 14 -15 21 -13
10 -15 9 -15 -9z"/>
<path d="M1841 2584 c0 -11 3 -14 6 -6 3 7 2 16 -1 19 -3 4 -6 -2 -5 -13z"/>
<path d="M6881 2544 c0 -11 3 -14 6 -6 3 7 2 16 -1 19 -3 4 -6 -2 -5 -13z"/>
<path d="M6791 2524 c0 -11 3 -14 6 -6 3 7 2 16 -1 19 -3 4 -6 -2 -5 -13z"/>
<path d="M6744 2459 c-11 -65 -1 -93 11 -31 13 61 14 81 6 86 -4 3 -12 -22
-17 -55z"/>
<path d="M6776 2482 c-3 -6 -1 -14 5 -17 15 -10 25 3 12 16 -7 7 -13 7 -17 1z"/>
<path d="M6765 2349 c-19 -41 -19 -41 -36 -21 -16 20 -17 19 -22 -30 -4 -29
-4 -54 -2 -57 3 -2 5 5 5 17 0 26 15 36 36 24 10 -6 25 -5 40 2 28 13 31 26 7
26 -13 0 -14 3 -5 12 14 14 16 68 4 68 -5 0 -17 -18 -27 -41z"/>
<path d="M1777 2265 c-3 -16 0 -24 7 -22 14 4 21 47 8 47 -5 0 -12 -11 -15
-25z"/>
<path d="M6736 2242 c-3 -4 4 -9 15 -9 23 -2 25 3 4 10 -8 4 -16 3 -19 -1z"/>
<path d="M6710 2222 c5 -2 10 -16 10 -32 0 -26 3 -28 45 -32 l45 -3 0 35 0 35
-55 0 c-30 0 -51 -1 -45 -3z"/>
<path d="M1761 2204 c0 -11 3 -14 6 -6 3 7 2 16 -1 19 -3 4 -6 -2 -5 -13z"/>
<path d="M6687 2203 c-4 -6 -5 -18 -2 -25 3 -8 -1 -28 -10 -44 -8 -16 -14 -40
-14 -54 1 -20 2 -21 6 -5 5 25 25 68 35 75 4 3 4 19 0 35 -5 17 -11 24 -15 18z"/>
<path d="M1733 2145 c0 -8 4 -15 9 -15 4 0 8 4 8 9 0 6 -4 12 -8 15 -5 3 -9
-1 -9 -9z"/>
<path d="M6640 2020 c0 -5 5 -10 10 -10 6 0 10 5 10 10 0 6 -4 10 -10 10 -5 0
-10 -4 -10 -10z"/>
<path d="M6631 1964 c0 -11 3 -14 6 -6 3 7 2 16 -1 19 -3 4 -6 -2 -5 -13z"/>
<path d="M2277 1793 c-4 -24 -4 -61 -1 -83 4 -27 3 -40 -5 -40 -6 0 -12 12
-12 28 -1 15 -3 20 -6 10 -2 -9 0 -31 5 -50 8 -29 10 -31 17 -13 5 11 12 22
15 25 4 3 4 41 1 85 -6 75 -7 77 -14 38z"/>
<path d="M2635 1579 c-4 -6 -5 -12 -2 -15 2 -3 7 2 10 11 7 17 1 20 -8 4z"/>
<path d="M2630 1526 c0 -9 5 -16 10 -16 6 0 10 4 10 9 0 6 -4 13 -10 16 -5 3
-10 -1 -10 -9z"/>
<path d="M5550 5558 c0 -8 4 -18 10 -24 5 -5 16 -27 24 -49 l15 -40 -6 43 c-5
40 8 59 21 30 3 -7 3 -2 0 12 -9 35 -24 49 -24 22 0 -12 -4 -22 -10 -22 -5 0
-10 6 -10 14 0 8 -4 18 -10 21 -5 3 -10 0 -10 -7z"/>
<path d="M5760 5188 c0 -9 7 -22 17 -29 15 -13 15 -12 3 11 -17 34 -20 36 -20
18z"/>
<path d="M6113 3683 c-13 -2 -23 -8 -23 -12 0 -5 -11 -6 -24 -4 -13 3 -27 0
-31 -6 -3 -6 -3 -11 2 -10 4 1 17 1 28 0 16 -1 17 -3 5 -10 -15 -9 -52 -14
-80 -12 -13 1 -13 2 0 11 21 13 10 18 -32 12 -21 -2 -35 -8 -32 -13 3 -5 -6
-9 -20 -9 -16 0 -25 -5 -23 -12 1 -8 -9 -14 -23 -15 -71 -4 -67 -3 -47 -14 18
-10 18 -11 0 -25 -10 -7 -26 -14 -35 -14 -10 0 -18 -5 -18 -11 0 -8 14 -10 39
-6 31 4 38 2 34 -9 -3 -9 -20 -13 -51 -11 -42 2 -47 0 -44 -18 2 -11 3 -31 3
-45 -1 -20 1 -22 10 -10 9 12 10 10 6 -8 -10 -44 65 -67 76 -24 4 15 5 15 6 0
1 -14 11 -18 44 -19 34 -1 37 -2 17 -8 -18 -5 -21 -9 -10 -13 31 -11 99 0 126
21 30 23 50 27 56 9 2 -6 10 -8 17 -4 9 6 8 11 -6 22 -17 14 -16 15 7 8 14 -4
27 -10 30 -15 3 -4 12 -4 20 1 13 9 13 10 0 10 -34 1 25 30 61 30 21 0 39 5
41 11 2 6 18 12 36 13 36 2 54 16 59 48 5 29 12 35 22 19 6 -10 13 -5 24 18
15 30 14 78 -1 93 -11 10 -64 -3 -59 -16 3 -6 -8 -12 -24 -13 -31 -2 -35 7
-19 38 9 15 7 21 -6 26 -9 3 -20 0 -24 -7 -4 -7 -10 -8 -13 -3 -9 15 -67 3
-67 -14 0 -11 -3 -11 -14 -1 -10 9 -11 15 -2 20 12 8 -2 9 -41 1z m80 -180
c-7 -2 -19 -2 -25 0 -7 3 -2 5 12 5 14 0 19 -2 13 -5z m117 3 c0 -3 -4 -8 -10
-11 -5 -3 -10 -1 -10 4 0 6 5 11 10 11 6 0 10 -2 10 -4z m-40 -10 c0 -2 -7 -6
-15 -10 -8 -3 -15 -1 -15 4 0 6 7 10 15 10 8 0 15 -2 15 -4z m-470 -86 c0 -5
-4 -10 -9 -10 -6 0 -13 5 -16 10 -3 6 1 10 9 10 9 0 16 -4 16 -10z m210 3 c-1
-25 -70 -60 -70 -35 0 6 14 13 30 17 17 4 30 11 30 16 0 5 2 9 5 9 3 0 5 -3 5
-7z"/>
<path d="M5780 3570 c0 -5 4 -10 9 -10 6 0 13 5 16 10 3 6 -1 10 -9 10 -9 0
-16 -4 -16 -10z"/>
<path d="M5175 2919 c-28 -23 -72 -57 -100 -74 -27 -18 -77 -53 -109 -79 -32
-25 -67 -48 -77 -51 -11 -4 -46 11 -91 38 -62 38 -141 77 -154 77 -2 0 -4 -7
-4 -15 0 -16 115 -95 173 -120 41 -17 70 -13 132 18 99 49 292 210 284 236 -2
6 -25 -6 -54 -30z"/>
<path d="M3150 2680 c0 -13 11 -13 30 0 12 8 11 10 -7 10 -13 0 -23 -4 -23
-10z"/>
<path d="M5582 5010 c14 -22 24 -19 15 5 -4 8 -11 15 -17 15 -6 0 -6 -7 2 -20z"/>
<path d="M3371 4534 c0 -11 3 -14 6 -6 3 7 2 16 -1 19 -3 4 -6 -2 -5 -13z"/>
<path d="M3381 4478 c0 -13 4 -32 8 -42 11 -29 24 -2 16 34 -8 35 -25 40 -24
8z"/>
<path d="M3346 4427 c3 -10 9 -15 12 -12 3 3 0 11 -7 18 -10 9 -11 8 -5 -6z"/>
<path d="M4071 4274 c0 -16 3 -23 6 -16 2 6 9 10 14 6 15 -9 10 13 -6 26 -13
11 -15 8 -14 -16z"/>
<path d="M7267 4070 c3 -41 8 -79 12 -83 4 -4 4 23 -1 60 -12 99 -18 109 -11
23z"/>
<path d="M7488 4095 c-4 -17 -1 -25 8 -25 8 0 14 11 14 25 0 14 -4 25 -9 25
-5 0 -11 -11 -13 -25z"/>
<path d="M7455 4100 c3 -5 8 -10 11 -10 2 0 4 5 4 10 0 6 -5 10 -11 10 -5 0
-7 -4 -4 -10z"/>
<path d="M7370 4054 c0 -8 5 -12 10 -9 6 3 14 -4 19 -17 7 -16 10 -18 10 -6 1
26 -10 48 -25 48 -8 0 -14 -7 -14 -16z"/>
<path d="M7570 4035 c-14 -16 -10 -18 14 -9 9 3 16 10 16 15 0 14 -16 11 -30
-6z"/>
<path d="M7597 4024 c-12 -13 -7 -20 13 -20 11 0 19 5 17 10 -4 13 -21 18 -30
10z"/>
<path d="M7650 4009 c0 -11 5 -17 10 -14 6 3 10 13 10 21 0 8 -4 14 -10 14 -5
0 -10 -9 -10 -21z"/>
<path d="M7368 3960 c-1 -28 0 -59 4 -68 5 -14 7 -12 7 6 1 14 6 22 14 20 15
-6 22 -48 8 -48 -6 0 -11 -9 -11 -20 0 -31 14 -24 25 13 12 36 8 127 -5 127
-5 0 -6 -9 -3 -20 3 -11 0 -20 -6 -20 -6 0 -11 14 -11 30 0 50 -18 33 -22 -20z"/>
<path d="M7280 3955 c0 -8 -6 -12 -14 -9 -8 3 -16 -3 -19 -15 -4 -16 0 -21 14
-21 16 0 19 -7 19 -40 0 -30 4 -40 16 -40 14 0 15 7 11 37 -4 20 -11 39 -17
43 -7 4 -8 18 -4 33 3 15 3 27 0 27 -3 0 -6 -7 -6 -15z"/>
<path d="M7351 3854 c0 -11 3 -14 6 -6 3 7 2 16 -1 19 -3 4 -6 -2 -5 -13z"/>
<path d="M7432 3850 c0 -14 2 -19 5 -12 2 6 2 18 0 25 -3 6 -5 1 -5 -13z"/>
<path d="M7421 3753 c0 -39 2 -74 7 -76 4 -3 6 18 4 46 -5 92 -9 104 -11 30z"/>
<path d="M7443 3745 c0 -27 2 -38 4 -22 2 15 2 37 0 50 -2 12 -4 0 -4 -28z"/>
<path d="M7352 3735 c0 -16 2 -22 5 -12 2 9 2 23 0 30 -3 6 -5 -1 -5 -18z"/>
<path d="M7451 3635 c-1 -22 -4 -76 -5 -119 -2 -49 -7 -81 -14 -84 -14 -4 -16
-64 -3 -77 5 -6 12 -19 15 -30 3 -11 3 9 1 45 -3 43 -1 55 4 35 14 -55 25 78
14 179 -6 57 -11 76 -12 51z m6 -197 c-3 -8 -6 -5 -6 6 -1 11 2 17 5 13 3 -3
4 -12 1 -19z"/>
<path d="M7370 3605 c0 -10 11 -15 35 -15 24 0 35 5 35 15 0 10 -11 15 -35 15
-24 0 -35 -5 -35 -15z"/>
<path d="M7410 3495 c0 -8 7 -15 15 -15 8 0 15 7 15 15 0 8 -7 15 -15 15 -8 0
-15 -7 -15 -15z"/>
<path d="M7297 3456 c-14 -11 -17 -25 -15 -58 3 -40 5 -43 33 -46 30 -3 31 -2
27 38 -3 25 0 40 7 40 7 0 11 -27 12 -72 0 -40 4 -93 9 -118 7 -40 8 -36 7 33
-2 56 1 77 11 77 7 0 12 -15 12 -40 0 -22 5 -40 10 -40 6 0 10 18 10 40 0 22
-4 40 -9 40 -5 0 -11 23 -13 50 -5 51 -17 76 -25 53 -6 -18 -30 -16 -37 2 -7
18 -16 18 -39 1z"/>
<path d="M7630 3331 c0 -12 5 -21 10 -21 6 0 10 6 10 14 0 8 -4 18 -10 21 -5
3 -10 -3 -10 -14z"/>
<path d="M7788 3343 c7 -3 16 -2 19 1 4 3 -2 6 -13 5 -11 0 -14 -3 -6 -6z"/>
<path d="M7252 3200 c0 -50 1 -52 9 -23 6 19 5 40 0 55 -8 18 -10 12 -9 -32z"/>
<path d="M7293 3224 c-18 -19 -16 -71 2 -78 8 -3 15 0 16 7 0 7 4 3 9 -8 7
-17 9 -15 9 11 1 19 7 34 16 38 24 9 18 26 -9 26 -13 0 -26 4 -28 9 -1 5 -9 3
-15 -5z"/>
<path d="M7290 3075 c0 -19 2 -35 4 -35 2 0 11 -3 20 -6 13 -5 16 2 16 35 0
34 -3 41 -20 41 -16 0 -20 -7 -20 -35z"/>
<path d="M7372 3018 c-14 -14 -15 -38 -2 -58 7 -11 9 -5 5 20 -4 27 -3 30 4
15 9 -18 10 -17 10 8 1 31 0 32 -17 15z"/>
<path d="M7312 2895 c4 -52 12 -74 23 -64 2 3 1 30 -2 62 -8 74 -27 76 -21 2z"/>
<path d="M7280 2811 c0 -12 6 -21 16 -21 9 0 14 7 12 17 -5 25 -28 28 -28 4z"/>
<path d="M7271 2724 c0 -11 3 -14 6 -6 3 7 2 16 -1 19 -3 4 -6 -2 -5 -13z"/>
<path d="M7330 2695 c0 -8 7 -15 15 -15 8 0 15 7 15 15 0 8 -7 15 -15 15 -8 0
-15 -7 -15 -15z"/>
<path d="M7246 2355 c-3 -8 -1 -15 4 -15 13 0 22 18 11 24 -5 3 -11 -1 -15 -9z"/>
<path d="M2490 3631 c0 -6 5 -13 10 -16 6 -3 10 1 10 9 0 9 -4 16 -10 16 -5 0
-10 -4 -10 -9z"/>
<path d="M2643 3070 c0 -25 2 -35 4 -22 2 12 2 32 0 45 -2 12 -4 2 -4 -23z"/>
<path d="M2553 2910 c0 -25 2 -35 4 -22 2 12 2 32 0 45 -2 12 -4 2 -4 -23z"/>
<path d="M2586 2446 c4 -15 15 -49 25 -74 14 -37 18 -41 19 -22 0 14 2 34 4
45 2 11 1 14 -1 8 -3 -7 -9 -13 -14 -13 -14 0 -11 33 7 58 14 20 14 22 0 22
-9 0 -16 -5 -16 -11 0 -8 -5 -7 -16 2 -13 11 -14 9 -8 -15z"/>
<path d="M2680 2430 c0 -22 5 -40 10 -40 6 0 10 18 10 40 0 22 -4 40 -10 40
-5 0 -10 -18 -10 -40z"/>
<path d="M2650 2270 c0 -22 5 -40 10 -40 6 0 10 18 10 40 0 22 -4 40 -10 40
-5 0 -10 -18 -10 -40z"/>
<path d="M7650 2971 c0 -5 5 -13 10 -16 6 -3 10 -2 10 4 0 5 -4 13 -10 16 -5
3 -10 2 -10 -4z"/>
<path d="M7683 2915 c0 -22 2 -30 4 -17 2 12 2 30 0 40 -3 9 -5 -1 -4 -23z"/>
<path d="M7596 2834 c-4 -15 -2 -32 3 -37 8 -8 11 0 11 26 0 44 -5 47 -14 11z"/>
<path d="M7682 2830 c0 -14 2 -19 5 -12 2 6 2 18 0 25 -3 6 -5 1 -5 -13z"/>
<path d="M7506 2729 c-8 -42 0 -50 9 -9 4 17 5 34 2 36 -2 3 -7 -10 -11 -27z"/>
<path d="M7472 2410 c0 -14 2 -19 5 -12 2 6 2 18 0 25 -3 6 -5 1 -5 -13z"/>
<path d="M7461 2084 c0 -11 3 -14 6 -6 3 7 2 16 -1 19 -3 4 -6 -2 -5 -13z"/>
<path d="M2822 2275 c0 -25 4 -45 9 -45 5 0 9 20 9 45 0 25 -4 45 -10 45 -5 0
-9 -20 -8 -45z"/>
<path d="M2863 2035 c0 -27 2 -38 4 -22 2 15 2 37 0 50 -2 12 -4 0 -4 -28z"/>
<path d="M2832 1855 c0 -16 2 -22 5 -12 2 9 2 23 0 30 -3 6 -5 -1 -5 -18z"/>
<path d="M2922 1797 c1 -27 6 -44 13 -44 9 0 10 11 3 41 -12 55 -16 56 -16 3z"/>
<path d="M2960 1794 c0 -6 7 -19 15 -30 8 -10 14 -14 14 -9 0 6 -6 19 -14 29
-8 11 -15 15 -15 10z"/>
<path d="M2910 1650 c0 -5 5 -10 11 -10 5 0 7 5 4 10 -3 6 -8 10 -11 10 -2 0
-4 -4 -4 -10z"/>
<path d="M2930 1621 c0 -6 4 -11 9 -11 5 0 12 -8 14 -17 4 -15 5 -15 6 -2 0 9
-6 22 -14 29 -10 9 -15 9 -15 1z"/>
<path d="M3020 1500 c0 -5 5 -10 10 -10 6 0 10 5 10 10 0 6 -4 10 -10 10 -5 0
-10 -4 -10 -10z"/>
<path d="M3121 1413 l1 -28 8 25 c7 23 8 21 12 -15 l5 -40 -1 39 c0 22 -7 41
-13 44 -9 2 -13 -6 -12 -25z"/>
<path d="M3054 1404 c3 -9 6 -18 6 -20 0 -2 5 -4 10 -4 6 0 10 9 10 20 0 12
-7 20 -16 20 -11 0 -14 -5 -10 -16z"/>
<path d="M3076 1354 c-4 -12 -1 -14 14 -9 13 4 20 2 20 -6 0 -7 2 -10 5 -7 9
9 -6 38 -20 38 -7 0 -16 -7 -19 -16z"/>
<path d="M3145 1340 c3 -5 8 -10 11 -10 2 0 4 5 4 10 0 6 -5 10 -11 10 -5 0
-7 -4 -4 -10z"/>
<path d="M6180 2165 c0 -16 16 -20 24 -6 3 5 -1 11 -9 15 -9 3 -15 0 -15 -9z"/>
<path d="M6115 1891 c-71 -32 -179 -83 -240 -113 -60 -31 -147 -70 -193 -89
-46 -18 -78 -35 -72 -37 31 -11 267 70 385 132 109 57 255 147 255 157 0 12
11 16 -135 -50z"/>
<path d="M4385 1566 c100 -28 499 -49 533 -28 14 9 -266 32 -458 38 -121 3
-123 3 -75 -10z"/>
<path d="M6110 1547 c-30 -11 -126 -46 -212 -78 -257 -96 -468 -143 -903 -203
-99 -14 -211 -30 -250 -35 -138 -20 -466 -61 -495 -61 -12 -1 -11 -3 3 -11 51
-30 492 2 864 62 474 76 722 145 944 260 69 36 119 74 108 82 -2 2 -29 -5 -59
-16z"/>
<path d="M3550 1105 c0 -3 35 -21 78 -41 106 -50 262 -71 262 -36 0 5 -25 12
-56 16 -56 6 -176 36 -228 56 -29 11 -56 13 -56 5z"/>
<path d="M4430 732 c0 -8 159 -44 340 -76 85 -15 245 -30 435 -42 142 -8 480
12 544 32 89 29 61 37 -106 28 -208 -12 -615 -8 -778 6 -122 11 -378 45 -417
56 -10 3 -18 1 -18 -4z"/>
<path d="M2722 1930 c0 -14 2 -19 5 -12 2 6 2 18 0 25 -3 6 -5 1 -5 -13z"/>
<path d="M3360 1786 c0 -40 9 -50 28 -30 7 8 8 14 2 14 -5 0 -10 11 -10 25 0
14 -4 25 -10 25 -5 0 -10 -15 -10 -34z"/>
<path d="M3451 1790 c-1 -14 -4 -35 -7 -47 -5 -17 -2 -23 10 -23 17 0 19 16 6
65 -7 28 -8 28 -9 5z"/>
<path d="M3480 1760 c0 -5 5 -10 10 -10 6 0 10 5 10 10 0 6 -4 10 -10 10 -5 0
-10 -4 -10 -10z"/>
<path d="M3230 1740 c0 -5 5 -10 10 -10 6 0 10 5 10 10 0 6 -4 10 -10 10 -5 0
-10 -4 -10 -10z"/>
<path d="M3266 1741 c-4 -7 -5 -15 -2 -18 9 -9 19 4 14 18 -4 11 -6 11 -12 0z"/>
<path d="M3508 1703 c-21 -5 -24 -33 -4 -33 7 0 16 9 19 20 3 11 4 19 4 19 -1
-1 -10 -3 -19 -6z"/>
<path d="M3508 1594 c-4 -3 -37 -6 -75 -6 -80 0 -100 -10 -78 -41 8 -12 15
-29 15 -39 0 -10 6 -18 13 -18 20 0 57 38 57 58 0 14 7 17 40 14 35 -4 40 -2
40 17 0 22 -3 25 -12 15z m-90 -36 c-6 -18 -28 -21 -28 -4 0 9 7 16 16 16 9 0
14 -5 12 -12z"/>
<path d="M3310 1569 c0 -18 2 -19 15 -9 8 7 15 16 15 21 0 5 -7 9 -15 9 -9 0
-15 -9 -15 -21z"/>
<path d="M3498 1343 c7 -3 16 -2 19 1 4 3 -2 6 -13 5 -11 0 -14 -3 -6 -6z"/>
<path d="M3680 1320 c0 -5 5 -10 11 -10 5 0 7 5 4 10 -3 6 -8 10 -11 10 -2 0
-4 -4 -4 -10z"/>
<path d="M3600 1259 c0 -5 9 -9 20 -9 11 0 20 2 20 4 0 2 -9 6 -20 9 -11 3
-20 1 -20 -4z"/>
<path d="M3590 1904 c0 -8 5 -12 10 -9 6 4 8 11 5 16 -9 14 -15 11 -15 -7z"/>
<path d="M3656 1705 c-3 -8 -1 -15 4 -15 6 0 10 7 10 15 0 8 -2 15 -4 15 -2 0
-6 -7 -10 -15z"/>
<path d="M3733 1897 c-10 -17 6 -19 28 -4 l22 16 -22 -2 c-13 -1 -25 -5 -28
-10z"/>
<path d="M3870 1717 c0 -19 16 -31 24 -18 3 5 -1 14 -9 21 -12 10 -15 10 -15
-3z"/>
<path d="M1026 8428 c-13 -30 -85 -254 -117 -366 -7 -26 -9 -46 -3 -52 12 -12
119 -56 369 -151 116 -43 226 -87 245 -95 46 -21 170 -64 186 -64 7 0 19 32
29 78 27 123 65 253 92 310 14 30 21 57 17 62 -9 8 -82 38 -224 90 -212 79
-247 93 -285 110 -52 25 -274 110 -286 110 -5 0 -16 -15 -23 -32z"/>
<path d="M1390 7530 c-107 -4 -252 -8 -322 -9 l-128 -1 1 -207 c1 -115 4 -221
8 -238 l6 -30 175 3 c218 3 484 13 489 18 2 2 7 59 12 126 4 68 12 155 19 195
6 39 10 89 8 110 -4 45 16 43 -268 33z"/>
</g>
</svg>
